<svg xmlns="http://www.w3.org/2000/svg" xmlns:xlink="http://www.w3.org/1999/xlink" width="200" zoomAndPan="magnify" viewBox="0 0 150 149.999998" height="200" preserveAspectRatio="xMidYMid meet" version="1.0"><defs><g/></defs><rect x="-15" width="180" fill="#ffffff" y="-15" height="179.999997" fill-opacity="1"/><rect x="-15" width="180" fill="#000000" y="-15" height="179.999997" fill-opacity="1"/><g fill="#ffffff" fill-opacity="1"><g transform="translate(19.56624, 112.112406)"><g><path d="M 90.484375 -39.796875 C 90.484375 -31.859375 88.414062 -24.878906 84.28125 -18.859375 C 80.15625 -12.835938 74.582031 -8.1875 67.5625 -4.90625 C 60.550781 -1.632812 52.878906 0 44.546875 0 L 3.703125 0 L 3.703125 -2.078125 C 7.867188 -2.160156 10.859375 -2.851562 12.671875 -4.15625 C 14.484375 -5.46875 15.390625 -7.976562 15.390625 -11.6875 L 15.390625 -68.03125 C 15.390625 -71.738281 14.425781 -74.226562 12.5 -75.5 C 10.570312 -76.769531 7.640625 -77.40625 3.703125 -77.40625 L 3.703125 -79.484375 L 48.015625 -79.484375 C 56.890625 -79.484375 64.546875 -77.59375 70.984375 -73.8125 C 77.421875 -70.039062 82.28125 -65.125 85.5625 -59.0625 C 88.84375 -53.007812 90.484375 -46.585938 90.484375 -39.796875 Z M 27.890625 -73.125 L 27.890625 -5.78125 C 31.742188 -4.625 35.90625 -4.046875 40.375 -4.046875 C 47.476562 -4.046875 53.726562 -5.492188 59.125 -8.390625 C 64.519531 -11.285156 68.679688 -15.390625 71.609375 -20.703125 C 74.546875 -26.023438 76.015625 -32.160156 76.015625 -39.109375 C 76.015625 -46.046875 74.546875 -52.234375 71.609375 -57.671875 C 68.679688 -63.109375 64.535156 -67.367188 59.171875 -70.453125 C 53.816406 -73.546875 47.671875 -75.09375 40.734375 -75.09375 C 36.097656 -75.09375 31.816406 -74.4375 27.890625 -73.125 Z M 27.890625 -73.125 "/></g></g></g><g fill="#ffffff" fill-opacity="1"><g transform="translate(51.856251, 87.59922)"><g><path d="M 39.859375 -76.1875 C 35.910156 -76.1875 33.082031 -75.554688 31.375 -74.296875 C 29.664062 -73.046875 28.8125 -70.523438 28.8125 -66.734375 L 28.8125 -9.5625 C 28.8125 -7.96875 29.132812 -6.828125 29.78125 -6.140625 C 30.425781 -5.460938 31.507812 -5.125 33.03125 -5.125 L 49.984375 -5.125 C 53.929688 -5.125 57.195312 -5.632812 59.78125 -6.65625 C 62.363281 -7.6875 64.582031 -9.359375 66.4375 -11.671875 C 68.300781 -13.984375 70.109375 -17.265625 71.859375 -21.515625 L 73.796875 -20.84375 L 67.1875 0 L 4.78125 0 L 4.78125 -2.046875 L 5.578125 -2.046875 C 9.453125 -2.046875 12.242188 -2.726562 13.953125 -4.09375 C 15.660156 -5.46875 16.515625 -7.9375 16.515625 -11.5 L 16.515625 -66.84375 C 16.515625 -70.332031 15.617188 -72.757812 13.828125 -74.125 C 12.046875 -75.5 9.257812 -76.1875 5.46875 -76.1875 L 4.78125 -76.1875 L 4.78125 -78.234375 L 39.859375 -78.234375 Z M 39.859375 -76.1875 "/></g></g></g><g fill="#ffffff" fill-opacity="1"><g transform="translate(1.512986, 135.141774)"><g><path d="M 12.03125 -9.546875 L 11.6875 -9.546875 C 11.601562 -10.429688 11.320312 -11.097656 10.84375 -11.546875 C 10.375 -12.003906 9.84375 -12.234375 9.25 -12.234375 L 7.78125 -12.234375 L 7.78125 -2.03125 C 7.78125 -1.570312 7.84375 -1.222656 7.96875 -0.984375 C 8.09375 -0.742188 8.285156 -0.578125 8.546875 -0.484375 C 8.804688 -0.398438 9.175781 -0.351562 9.65625 -0.34375 L 9.65625 0 L 2.875 0 L 2.875 -0.34375 C 3.351562 -0.34375 3.722656 -0.375 3.984375 -0.4375 C 4.242188 -0.507812 4.4375 -0.664062 4.5625 -0.90625 C 4.695312 -1.144531 4.765625 -1.507812 4.765625 -2 L 4.765625 -12.234375 L 3.140625 -12.234375 C 2.578125 -12.234375 2.078125 -11.984375 1.640625 -11.484375 C 1.203125 -10.992188 0.9375 -10.347656 0.84375 -9.546875 L 0.515625 -9.546875 L 0.515625 -12.9375 L 12.03125 -12.9375 Z M 12.03125 -9.546875 "/></g></g></g><g fill="#ffffff" fill-opacity="1"><g transform="translate(14.074217, 135.141774)"><g><path d="M 3.671875 -7.5625 L 3.703125 -7.5625 C 4.378906 -8.476562 5.191406 -8.9375 6.140625 -8.9375 C 6.953125 -8.9375 7.546875 -8.671875 7.921875 -8.140625 C 8.296875 -7.617188 8.484375 -6.953125 8.484375 -6.140625 L 8.484375 -1.3125 C 8.484375 -1.09375 8.546875 -0.890625 8.671875 -0.703125 C 8.804688 -0.523438 8.976562 -0.40625 9.1875 -0.34375 L 9.1875 0 L 5.125 0 L 5.125 -0.34375 C 5.40625 -0.414062 5.601562 -0.53125 5.71875 -0.6875 C 5.84375 -0.84375 5.90625 -1.128906 5.90625 -1.546875 L 5.90625 -6.546875 C 5.90625 -7.328125 5.640625 -7.71875 5.109375 -7.71875 C 4.878906 -7.71875 4.648438 -7.632812 4.421875 -7.46875 C 4.191406 -7.300781 3.941406 -7.019531 3.671875 -6.625 L 3.671875 -1.53125 C 3.671875 -1.164062 3.726562 -0.890625 3.84375 -0.703125 C 3.96875 -0.515625 4.164062 -0.394531 4.4375 -0.34375 L 4.4375 0 L 0.3125 0 L 0.3125 -0.34375 C 0.539062 -0.40625 0.703125 -0.476562 0.796875 -0.5625 C 0.898438 -0.65625 0.972656 -0.796875 1.015625 -0.984375 C 1.066406 -1.179688 1.09375 -1.484375 1.09375 -1.890625 L 1.09375 -11.484375 C 1.09375 -11.859375 1.019531 -12.125 0.875 -12.28125 C 0.738281 -12.4375 0.550781 -12.539062 0.3125 -12.59375 L 0.3125 -12.9375 L 3.671875 -12.9375 Z M 3.671875 -7.5625 "/></g></g></g><g fill="#ffffff" fill-opacity="1"><g transform="translate(23.490436, 135.141774)"><g><path d="M 4.375 -8.9375 C 5.132812 -8.9375 5.773438 -8.742188 6.296875 -8.359375 C 6.816406 -7.972656 7.207031 -7.472656 7.46875 -6.859375 C 7.738281 -6.253906 7.878906 -5.625 7.890625 -4.96875 L 7.890625 -4.65625 L 2.9375 -4.65625 C 3.007812 -3.613281 3.28125 -2.769531 3.75 -2.125 C 4.226562 -1.488281 4.816406 -1.171875 5.515625 -1.171875 C 5.960938 -1.171875 6.347656 -1.289062 6.671875 -1.53125 C 6.992188 -1.78125 7.285156 -2.132812 7.546875 -2.59375 L 7.890625 -2.390625 C 7.460938 -1.484375 6.953125 -0.8125 6.359375 -0.375 C 5.773438 0.0507812 5.082031 0.265625 4.28125 0.265625 C 3.46875 0.265625 2.773438 0.0664062 2.203125 -0.328125 C 1.640625 -0.722656 1.207031 -1.257812 0.90625 -1.9375 C 0.601562 -2.613281 0.453125 -3.375 0.453125 -4.21875 C 0.453125 -5.0625 0.625 -5.84375 0.96875 -6.5625 C 1.320312 -7.28125 1.800781 -7.851562 2.40625 -8.28125 C 3.007812 -8.71875 3.664062 -8.9375 4.375 -8.9375 Z M 5.59375 -5.75 C 5.59375 -6.632812 5.492188 -7.289062 5.296875 -7.71875 C 5.109375 -8.144531 4.800781 -8.359375 4.375 -8.359375 C 3.914062 -8.359375 3.5625 -8.078125 3.3125 -7.515625 C 3.0625 -6.960938 2.9375 -6.320312 2.9375 -5.59375 L 2.9375 -5.265625 L 5.59375 -5.265625 Z M 5.59375 -5.75 "/></g></g></g><g fill="#ffffff" fill-opacity="1"><g transform="translate(31.739047, 135.141774)"><g/></g></g><g fill="#ffffff" fill-opacity="1"><g transform="translate(36.447144, 135.141774)"><g><path d="M 13.859375 -6.375 C 13.859375 -5.050781 13.570312 -3.90625 13 -2.9375 C 12.425781 -1.96875 11.644531 -1.234375 10.65625 -0.734375 C 9.675781 -0.242188 8.582031 0 7.375 0 L 0.3125 0 L 0.3125 -0.34375 C 0.78125 -0.34375 1.132812 -0.375 1.375 -0.4375 C 1.613281 -0.507812 1.789062 -0.65625 1.90625 -0.875 C 2.03125 -1.101562 2.09375 -1.460938 2.09375 -1.953125 L 2.09375 -10.953125 C 2.09375 -11.441406 2.03125 -11.800781 1.90625 -12.03125 C 1.78125 -12.269531 1.597656 -12.421875 1.359375 -12.484375 C 1.117188 -12.554688 0.769531 -12.59375 0.3125 -12.59375 L 0.3125 -12.9375 L 7.078125 -12.9375 C 8.304688 -12.9375 9.4375 -12.6875 10.46875 -12.1875 C 11.5 -11.695312 12.320312 -10.957031 12.9375 -9.96875 C 13.550781 -8.976562 13.859375 -7.78125 13.859375 -6.375 Z M 6.546875 -0.65625 C 9.179688 -0.65625 10.5 -2.53125 10.5 -6.28125 C 10.5 -8.382812 10.117188 -9.910156 9.359375 -10.859375 C 8.609375 -11.804688 7.65625 -12.28125 6.5 -12.28125 L 5.109375 -12.28125 L 5.109375 -1.921875 C 5.109375 -1.554688 5.144531 -1.285156 5.21875 -1.109375 C 5.300781 -0.929688 5.441406 -0.8125 5.640625 -0.75 C 5.847656 -0.6875 6.148438 -0.65625 6.546875 -0.65625 Z M 6.546875 -0.65625 "/></g></g></g><g fill="#ffffff" fill-opacity="1"><g transform="translate(50.966936, 135.141774)"><g><path d="M 4.375 -8.9375 C 5.132812 -8.9375 5.773438 -8.742188 6.296875 -8.359375 C 6.816406 -7.972656 7.207031 -7.472656 7.46875 -6.859375 C 7.738281 -6.253906 7.878906 -5.625 7.890625 -4.96875 L 7.890625 -4.65625 L 2.9375 -4.65625 C 3.007812 -3.613281 3.28125 -2.769531 3.75 -2.125 C 4.226562 -1.488281 4.816406 -1.171875 5.515625 -1.171875 C 5.960938 -1.171875 6.347656 -1.289062 6.671875 -1.53125 C 6.992188 -1.78125 7.285156 -2.132812 7.546875 -2.59375 L 7.890625 -2.390625 C 7.460938 -1.484375 6.953125 -0.8125 6.359375 -0.375 C 5.773438 0.0507812 5.082031 0.265625 4.28125 0.265625 C 3.46875 0.265625 2.773438 0.0664062 2.203125 -0.328125 C 1.640625 -0.722656 1.207031 -1.257812 0.90625 -1.9375 C 0.601562 -2.613281 0.453125 -3.375 0.453125 -4.21875 C 0.453125 -5.0625 0.625 -5.84375 0.96875 -6.5625 C 1.320312 -7.28125 1.800781 -7.851562 2.40625 -8.28125 C 3.007812 -8.71875 3.664062 -8.9375 4.375 -8.9375 Z M 5.59375 -5.75 C 5.59375 -6.632812 5.492188 -7.289062 5.296875 -7.71875 C 5.109375 -8.144531 4.800781 -8.359375 4.375 -8.359375 C 3.914062 -8.359375 3.5625 -8.078125 3.3125 -7.515625 C 3.0625 -6.960938 2.9375 -6.320312 2.9375 -5.59375 L 2.9375 -5.265625 L 5.59375 -5.265625 Z M 5.59375 -5.75 "/></g></g></g><g fill="#ffffff" fill-opacity="1"><g transform="translate(59.215547, 135.141774)"><g><path d="M 4.375 -8.9375 C 5.132812 -8.9375 5.773438 -8.742188 6.296875 -8.359375 C 6.816406 -7.972656 7.207031 -7.472656 7.46875 -6.859375 C 7.738281 -6.253906 7.878906 -5.625 7.890625 -4.96875 L 7.890625 -4.65625 L 2.9375 -4.65625 C 3.007812 -3.613281 3.28125 -2.769531 3.75 -2.125 C 4.226562 -1.488281 4.816406 -1.171875 5.515625 -1.171875 C 5.960938 -1.171875 6.347656 -1.289062 6.671875 -1.53125 C 6.992188 -1.78125 7.285156 -2.132812 7.546875 -2.59375 L 7.890625 -2.390625 C 7.460938 -1.484375 6.953125 -0.8125 6.359375 -0.375 C 5.773438 0.0507812 5.082031 0.265625 4.28125 0.265625 C 3.46875 0.265625 2.773438 0.0664062 2.203125 -0.328125 C 1.640625 -0.722656 1.207031 -1.257812 0.90625 -1.9375 C 0.601562 -2.613281 0.453125 -3.375 0.453125 -4.21875 C 0.453125 -5.0625 0.625 -5.84375 0.96875 -6.5625 C 1.320312 -7.28125 1.800781 -7.851562 2.40625 -8.28125 C 3.007812 -8.71875 3.664062 -8.9375 4.375 -8.9375 Z M 5.59375 -5.75 C 5.59375 -6.632812 5.492188 -7.289062 5.296875 -7.71875 C 5.109375 -8.144531 4.800781 -8.359375 4.375 -8.359375 C 3.914062 -8.359375 3.5625 -8.078125 3.3125 -7.515625 C 3.0625 -6.960938 2.9375 -6.320312 2.9375 -5.59375 L 2.9375 -5.265625 L 5.59375 -5.265625 Z M 5.59375 -5.75 "/></g></g></g><g fill="#ffffff" fill-opacity="1"><g transform="translate(67.464158, 135.141774)"><g><path d="M 5.9375 -8.9375 C 6.507812 -8.9375 7.023438 -8.734375 7.484375 -8.328125 C 7.941406 -7.929688 8.300781 -7.382812 8.5625 -6.6875 C 8.832031 -6 8.96875 -5.210938 8.96875 -4.328125 C 8.96875 -3.296875 8.789062 -2.4375 8.4375 -1.75 C 8.09375 -1.0625 7.671875 -0.550781 7.171875 -0.21875 C 6.679688 0.101562 6.195312 0.265625 5.71875 0.265625 C 4.96875 0.265625 4.375 -0.0664062 3.9375 -0.734375 L 3.890625 -0.734375 L 3.890625 2.546875 C 3.890625 2.972656 3.976562 3.257812 4.15625 3.40625 C 4.34375 3.5625 4.695312 3.644531 5.21875 3.65625 L 5.21875 3.984375 L 0.28125 3.984375 L 0.28125 3.65625 C 0.644531 3.65625 0.90625 3.566406 1.0625 3.390625 C 1.226562 3.210938 1.3125 2.921875 1.3125 2.515625 L 1.3125 -7.265625 C 1.3125 -7.679688 1.226562 -7.972656 1.0625 -8.140625 C 0.894531 -8.304688 0.632812 -8.390625 0.28125 -8.390625 L 0.28125 -8.734375 L 3.890625 -8.734375 L 3.890625 -7.703125 L 3.9375 -7.703125 C 4.4375 -8.523438 5.101562 -8.9375 5.9375 -8.9375 Z M 3.890625 -6.703125 L 3.890625 -1.5625 C 4.378906 -0.945312 4.816406 -0.640625 5.203125 -0.640625 C 5.597656 -0.640625 5.867188 -0.90625 6.015625 -1.4375 C 6.171875 -1.96875 6.25 -2.894531 6.25 -4.21875 C 6.25 -5.488281 6.15625 -6.40625 5.96875 -6.96875 C 5.789062 -7.53125 5.488281 -7.8125 5.0625 -7.8125 C 4.832031 -7.8125 4.609375 -7.695312 4.390625 -7.46875 C 4.179688 -7.25 4.015625 -6.992188 3.890625 -6.703125 Z M 3.890625 -6.703125 "/></g></g></g><g fill="#ffffff" fill-opacity="1"><g transform="translate(76.880376, 135.141774)"><g/></g></g><g fill="#ffffff" fill-opacity="1"><g transform="translate(81.588473, 135.141774)"><g><path d="M 7.609375 -12.59375 C 6.960938 -12.582031 6.492188 -12.546875 6.203125 -12.484375 C 5.921875 -12.429688 5.707031 -12.289062 5.5625 -12.0625 C 5.414062 -11.84375 5.34375 -11.472656 5.34375 -10.953125 L 5.34375 -1.734375 C 5.34375 -1.367188 5.429688 -1.101562 5.609375 -0.9375 C 5.796875 -0.78125 6.09375 -0.703125 6.5 -0.703125 L 7.875 -0.703125 C 8.925781 -0.703125 9.757812 -1 10.375 -1.59375 C 11 -2.195312 11.460938 -3.132812 11.765625 -4.40625 L 12.109375 -4.40625 L 11.65625 0 L 0.296875 0 L 0.296875 -0.34375 C 0.847656 -0.351562 1.257812 -0.398438 1.53125 -0.484375 C 1.8125 -0.566406 2.015625 -0.71875 2.140625 -0.9375 C 2.265625 -1.164062 2.328125 -1.515625 2.328125 -1.984375 L 2.328125 -10.953125 C 2.328125 -11.472656 2.253906 -11.84375 2.109375 -12.0625 C 1.972656 -12.289062 1.773438 -12.429688 1.515625 -12.484375 C 1.253906 -12.546875 0.847656 -12.582031 0.296875 -12.59375 L 0.296875 -12.9375 L 7.609375 -12.9375 Z M 7.609375 -12.59375 "/></g></g></g><g fill="#ffffff" fill-opacity="1"><g transform="translate(94.149705, 135.141774)"><g><path d="M 4.78125 -8.9375 C 5.863281 -8.9375 6.65625 -8.71875 7.15625 -8.28125 C 7.65625 -7.84375 7.90625 -7.285156 7.90625 -6.609375 L 7.90625 -1.953125 C 7.90625 -1.265625 8.082031 -0.921875 8.4375 -0.921875 C 8.53125 -0.921875 8.613281 -0.945312 8.6875 -1 C 8.757812 -1.0625 8.835938 -1.160156 8.921875 -1.296875 L 9.09375 -1.125 C 8.914062 -0.695312 8.640625 -0.359375 8.265625 -0.109375 C 7.890625 0.140625 7.46875 0.265625 7 0.265625 C 6.519531 0.265625 6.132812 0.144531 5.84375 -0.09375 C 5.550781 -0.332031 5.378906 -0.6875 5.328125 -1.15625 C 5.253906 -1.101562 5.140625 -1.015625 4.984375 -0.890625 C 4.546875 -0.523438 4.140625 -0.238281 3.765625 -0.03125 C 3.390625 0.164062 2.957031 0.265625 2.46875 0.265625 C 1.976562 0.265625 1.566406 0.0859375 1.234375 -0.265625 C 0.898438 -0.617188 0.734375 -1.046875 0.734375 -1.546875 C 0.734375 -2.191406 1.019531 -2.769531 1.59375 -3.28125 C 2.164062 -3.800781 2.789062 -4.21875 3.46875 -4.53125 L 5.328125 -5.4375 L 5.328125 -7.15625 C 5.328125 -7.46875 5.226562 -7.734375 5.03125 -7.953125 C 4.84375 -8.171875 4.539062 -8.28125 4.125 -8.28125 C 3.757812 -8.28125 3.453125 -8.203125 3.203125 -8.046875 C 2.960938 -7.898438 2.84375 -7.722656 2.84375 -7.515625 C 2.84375 -7.441406 2.863281 -7.363281 2.90625 -7.28125 C 2.945312 -7.207031 3 -7.132812 3.0625 -7.0625 C 3.175781 -6.925781 3.265625 -6.796875 3.328125 -6.671875 C 3.390625 -6.546875 3.421875 -6.398438 3.421875 -6.234375 C 3.421875 -5.929688 3.304688 -5.6875 3.078125 -5.5 C 2.859375 -5.3125 2.566406 -5.21875 2.203125 -5.21875 C 1.796875 -5.21875 1.46875 -5.320312 1.21875 -5.53125 C 0.96875 -5.75 0.84375 -6.03125 0.84375 -6.375 C 0.84375 -6.832031 1.019531 -7.257812 1.375 -7.65625 C 1.738281 -8.050781 2.222656 -8.363281 2.828125 -8.59375 C 3.429688 -8.820312 4.082031 -8.9375 4.78125 -8.9375 Z M 3.296875 -2.359375 C 3.296875 -2.054688 3.378906 -1.8125 3.546875 -1.625 C 3.710938 -1.4375 3.929688 -1.34375 4.203125 -1.34375 C 4.410156 -1.34375 4.597656 -1.378906 4.765625 -1.453125 C 4.941406 -1.523438 5.128906 -1.644531 5.328125 -1.8125 L 5.328125 -4.78125 C 3.972656 -4.09375 3.296875 -3.285156 3.296875 -2.359375 Z M 3.296875 -2.359375 "/></g></g></g><g fill="#ffffff" fill-opacity="1"><g transform="translate(103.565923, 135.141774)"><g><path d="M 3.578125 -2.578125 C 3.578125 -2.023438 3.640625 -1.625 3.765625 -1.375 C 3.898438 -1.132812 4.113281 -1.015625 4.40625 -1.015625 C 4.664062 -1.015625 4.925781 -1.113281 5.1875 -1.3125 C 5.457031 -1.519531 5.691406 -1.796875 5.890625 -2.140625 L 5.890625 -7.34375 C 5.890625 -7.707031 5.800781 -7.960938 5.625 -8.109375 C 5.445312 -8.265625 5.171875 -8.359375 4.796875 -8.390625 L 4.796875 -8.734375 L 8.46875 -8.734375 L 8.46875 -1.03125 C 8.46875 -0.625 8.679688 -0.394531 9.109375 -0.34375 L 9.109375 0 L 5.890625 0 L 5.890625 -1.125 C 5.535156 -0.71875 5.144531 -0.382812 4.71875 -0.125 C 4.289062 0.132812 3.851562 0.265625 3.40625 0.265625 C 2.664062 0.265625 2.078125 0.0234375 1.640625 -0.453125 C 1.210938 -0.941406 1 -1.585938 1 -2.390625 L 1 -7.21875 C 1 -7.601562 0.945312 -7.882812 0.84375 -8.0625 C 0.75 -8.238281 0.5625 -8.347656 0.28125 -8.390625 L 0.28125 -8.734375 L 3.578125 -8.734375 Z M 3.578125 -2.578125 "/></g></g></g><g fill="#ffffff" fill-opacity="1"><g transform="translate(112.982142, 135.141774)"><g><path d="M 6.140625 -8.9375 C 6.890625 -8.9375 7.460938 -8.679688 7.859375 -8.171875 C 8.253906 -7.671875 8.453125 -7.050781 8.453125 -6.3125 L 8.453125 -1.8125 C 8.453125 -1.445312 8.46875 -1.175781 8.5 -1 C 8.53125 -0.832031 8.585938 -0.703125 8.671875 -0.609375 C 8.753906 -0.523438 8.894531 -0.4375 9.09375 -0.34375 L 9.09375 0 L 5.078125 0 L 5.078125 -0.34375 C 5.609375 -0.40625 5.875 -0.804688 5.875 -1.546875 L 5.875 -6.4375 C 5.875 -7.300781 5.597656 -7.734375 5.046875 -7.734375 C 4.554688 -7.734375 4.078125 -7.378906 3.609375 -6.671875 L 3.609375 -1.4375 C 3.609375 -0.800781 3.875 -0.4375 4.40625 -0.34375 L 4.40625 0 L 0.3125 0 L 0.3125 -0.34375 C 0.539062 -0.394531 0.71875 -0.503906 0.84375 -0.671875 C 0.96875 -0.847656 1.03125 -1.132812 1.03125 -1.53125 L 1.03125 -7.265625 C 1.03125 -7.515625 0.976562 -7.75 0.875 -7.96875 C 0.769531 -8.1875 0.582031 -8.328125 0.3125 -8.390625 L 0.3125 -8.734375 L 3.609375 -8.734375 L 3.609375 -7.5625 C 4.015625 -8.03125 4.414062 -8.375 4.8125 -8.59375 C 5.21875 -8.820312 5.660156 -8.9375 6.140625 -8.9375 Z M 6.140625 -8.9375 "/></g></g></g><g fill="#ffffff" fill-opacity="1"><g transform="translate(122.39836, 135.141774)"><g><path d="M 8.09375 -1.9375 C 8.09375 -1.539062 8.164062 -1.257812 8.3125 -1.09375 C 8.46875 -0.925781 8.753906 -0.84375 9.171875 -0.84375 L 9.171875 -0.515625 L 5.515625 0.25 L 5.515625 -1.015625 L 5.484375 -1.015625 C 5.273438 -0.597656 5 -0.28125 4.65625 -0.0625 C 4.3125 0.15625 3.941406 0.265625 3.546875 0.265625 C 2.941406 0.265625 2.398438 0.0664062 1.921875 -0.328125 C 1.453125 -0.734375 1.085938 -1.296875 0.828125 -2.015625 C 0.566406 -2.734375 0.4375 -3.539062 0.4375 -4.4375 C 0.4375 -5.382812 0.59375 -6.195312 0.90625 -6.875 C 1.226562 -7.5625 1.640625 -8.078125 2.140625 -8.421875 C 2.648438 -8.765625 3.171875 -8.9375 3.703125 -8.9375 C 4.054688 -8.9375 4.375 -8.863281 4.65625 -8.71875 C 4.9375 -8.582031 5.222656 -8.347656 5.515625 -8.015625 L 5.515625 -11.46875 C 5.515625 -11.914062 5.414062 -12.210938 5.21875 -12.359375 C 5.03125 -12.503906 4.703125 -12.582031 4.234375 -12.59375 L 4.234375 -12.9375 L 8.09375 -12.9375 Z M 3.140625 -4.75 C 3.140625 -3.476562 3.234375 -2.515625 3.421875 -1.859375 C 3.609375 -1.210938 3.925781 -0.890625 4.375 -0.890625 C 4.78125 -0.890625 5.160156 -1.257812 5.515625 -2 L 5.515625 -6.921875 C 5.304688 -7.347656 5.09375 -7.644531 4.875 -7.8125 C 4.664062 -7.988281 4.4375 -8.078125 4.1875 -8.078125 C 3.78125 -8.078125 3.503906 -7.789062 3.359375 -7.21875 C 3.210938 -6.644531 3.140625 -5.820312 3.140625 -4.75 Z M 3.140625 -4.75 "/></g></g></g><g fill="#ffffff" fill-opacity="1"><g transform="translate(131.814579, 135.141774)"><g><path d="M 5.84375 -8.9375 C 6.132812 -8.9375 6.375 -8.820312 6.5625 -8.59375 C 6.757812 -8.363281 6.859375 -8.066406 6.859375 -7.703125 C 6.859375 -7.304688 6.757812 -6.988281 6.5625 -6.75 C 6.375 -6.519531 6.117188 -6.40625 5.796875 -6.40625 C 5.648438 -6.40625 5.519531 -6.4375 5.40625 -6.5 C 5.289062 -6.5625 5.148438 -6.648438 4.984375 -6.765625 C 4.742188 -6.921875 4.570312 -7 4.46875 -7 C 4.257812 -7 4.085938 -6.835938 3.953125 -6.515625 C 3.816406 -6.191406 3.75 -5.820312 3.75 -5.40625 L 3.75 -1.484375 C 3.75 -1.066406 3.828125 -0.769531 3.984375 -0.59375 C 4.148438 -0.425781 4.445312 -0.34375 4.875 -0.34375 L 4.875 0 L 0.203125 0 L 0.203125 -0.34375 C 0.847656 -0.34375 1.171875 -0.71875 1.171875 -1.46875 L 1.171875 -7.265625 C 1.171875 -8.003906 0.847656 -8.378906 0.203125 -8.390625 L 0.203125 -8.734375 L 3.75 -8.734375 L 3.75 -7.171875 L 3.78125 -7.171875 C 4.375 -8.347656 5.0625 -8.9375 5.84375 -8.9375 Z M 5.84375 -8.9375 "/></g></g></g><g fill="#ffffff" fill-opacity="1"><g transform="translate(139.065052, 135.141774)"><g><path d="M 4.921875 -8.390625 C 4.617188 -8.378906 4.398438 -8.332031 4.265625 -8.25 C 4.128906 -8.175781 4.0625 -8.039062 4.0625 -7.84375 C 4.0625 -7.582031 4.15625 -7.234375 4.34375 -6.796875 L 5.859375 -3.15625 L 6.828125 -5.984375 C 7.097656 -6.753906 7.234375 -7.28125 7.234375 -7.5625 C 7.234375 -8.113281 6.898438 -8.390625 6.234375 -8.390625 L 6.234375 -8.734375 L 9.09375 -8.734375 L 9.09375 -8.390625 C 8.769531 -8.390625 8.5 -8.234375 8.28125 -7.921875 C 8.0625 -7.617188 7.816406 -7.085938 7.546875 -6.328125 L 4.890625 1.265625 C 4.546875 2.273438 4.175781 2.976562 3.78125 3.375 C 3.382812 3.78125 2.890625 3.984375 2.296875 3.984375 C 1.804688 3.984375 1.410156 3.84375 1.109375 3.5625 C 0.804688 3.289062 0.65625 2.941406 0.65625 2.515625 C 0.65625 2.171875 0.769531 1.875 1 1.625 C 1.226562 1.382812 1.503906 1.265625 1.828125 1.265625 C 2.253906 1.265625 2.550781 1.457031 2.71875 1.84375 C 2.78125 2.007812 2.8125 2.21875 2.8125 2.46875 C 2.820312 2.65625 2.84375 2.796875 2.875 2.890625 C 2.914062 2.984375 3 3.03125 3.125 3.03125 C 3.375 3.03125 3.613281 2.828125 3.84375 2.421875 C 4.070312 2.015625 4.332031 1.335938 4.625 0.390625 L 1.75 -6.578125 C 1.488281 -7.203125 1.265625 -7.640625 1.078125 -7.890625 C 0.890625 -8.148438 0.632812 -8.316406 0.3125 -8.390625 L 0.3125 -8.734375 L 4.921875 -8.734375 Z M 4.921875 -8.390625 "/></g></g></g></svg>