<svg xmlns="http://www.w3.org/2000/svg" xmlns:xlink="http://www.w3.org/1999/xlink" width="100" zoomAndPan="magnify" viewBox="0 0 75 62.249996" height="83" preserveAspectRatio="xMidYMid meet" version="1.0"><defs><g/><clipPath id="1617f16e7b"><path d="M 0.445312 0 L 74.550781 0 L 74.550781 61.507812 L 0.445312 61.507812 Z M 0.445312 0 " clip-rule="nonzero"/></clipPath></defs><g clip-path="url(#1617f16e7b)"><path fill="#ffffff" d="M 0.445312 0 L 74.554688 0 L 74.554688 61.507812 L 0.445312 61.507812 Z M 0.445312 0 " fill-opacity="1" fill-rule="nonzero"/><path fill="#000000" d="M 0.445312 0 L 74.554688 0 L 74.554688 61.507812 L 0.445312 61.507812 Z M 0.445312 0 " fill-opacity="1" fill-rule="nonzero"/></g><g fill="#ffffff" fill-opacity="1"><g transform="translate(14.520525, 48.457563)"><g><path d="M 40.375 -17.765625 C 40.375 -14.210938 39.453125 -11.09375 37.609375 -8.40625 C 35.765625 -5.726562 33.273438 -3.65625 30.140625 -2.1875 C 27.015625 -0.726562 23.59375 0 19.875 0 L 1.65625 0 L 1.65625 -0.921875 C 3.507812 -0.960938 4.835938 -1.273438 5.640625 -1.859375 C 6.453125 -2.441406 6.859375 -3.5625 6.859375 -5.21875 L 6.859375 -30.359375 C 6.859375 -32.003906 6.425781 -33.109375 5.5625 -33.671875 C 4.707031 -34.242188 3.40625 -34.53125 1.65625 -34.53125 L 1.65625 -35.46875 L 21.421875 -35.46875 C 25.378906 -35.46875 28.796875 -34.625 31.671875 -32.9375 C 34.546875 -31.25 36.710938 -29.050781 38.171875 -26.34375 C 39.640625 -23.644531 40.375 -20.785156 40.375 -17.765625 Z M 12.4375 -32.625 L 12.4375 -2.578125 C 14.15625 -2.066406 16.015625 -1.8125 18.015625 -1.8125 C 21.179688 -1.8125 23.96875 -2.453125 26.375 -3.734375 C 28.789062 -5.023438 30.648438 -6.859375 31.953125 -9.234375 C 33.265625 -11.609375 33.921875 -14.347656 33.921875 -17.453125 C 33.921875 -20.546875 33.265625 -23.304688 31.953125 -25.734375 C 30.648438 -28.160156 28.800781 -30.0625 26.40625 -31.4375 C 24.007812 -32.8125 21.265625 -33.5 18.171875 -33.5 C 16.109375 -33.5 14.195312 -33.207031 12.4375 -32.625 Z M 12.4375 -32.625 "/></g></g></g><g fill="#ffffff" fill-opacity="1"><g transform="translate(28.929608, 37.51881)"><g><path d="M 17.78125 -34 C 16.019531 -34 14.757812 -33.71875 14 -33.15625 C 13.238281 -32.59375 12.859375 -31.46875 12.859375 -29.78125 L 12.859375 -4.265625 C 12.859375 -3.554688 13 -3.046875 13.28125 -2.734375 C 13.570312 -2.429688 14.054688 -2.28125 14.734375 -2.28125 L 22.3125 -2.28125 C 24.070312 -2.28125 25.523438 -2.507812 26.671875 -2.96875 C 27.828125 -3.425781 28.816406 -4.171875 29.640625 -5.203125 C 30.472656 -6.242188 31.28125 -7.710938 32.0625 -9.609375 L 32.921875 -9.296875 L 29.984375 0 L 2.140625 0 L 2.140625 -0.921875 L 2.484375 -0.921875 C 4.210938 -0.921875 5.457031 -1.222656 6.21875 -1.828125 C 6.988281 -2.441406 7.375 -3.539062 7.375 -5.125 L 7.375 -29.828125 C 7.375 -31.390625 6.972656 -32.472656 6.171875 -33.078125 C 5.378906 -33.691406 4.132812 -34 2.4375 -34 L 2.140625 -34 L 2.140625 -34.90625 L 17.78125 -34.90625 Z M 17.78125 -34 "/></g></g></g><g fill="#ffffff" fill-opacity="1"><g transform="translate(1.758614, 56.899413)"><g><path d="M 5.875 -4.671875 L 5.71875 -4.671875 C 5.675781 -5.097656 5.535156 -5.421875 5.296875 -5.640625 C 5.066406 -5.867188 4.804688 -5.984375 4.515625 -5.984375 L 3.796875 -5.984375 L 3.796875 -1 C 3.796875 -0.769531 3.828125 -0.59375 3.890625 -0.46875 C 3.953125 -0.351562 4.046875 -0.273438 4.171875 -0.234375 C 4.304688 -0.191406 4.488281 -0.171875 4.71875 -0.171875 L 4.71875 0 L 1.40625 0 L 1.40625 -0.171875 C 1.632812 -0.171875 1.8125 -0.1875 1.9375 -0.21875 C 2.070312 -0.25 2.171875 -0.320312 2.234375 -0.4375 C 2.296875 -0.550781 2.328125 -0.726562 2.328125 -0.96875 L 2.328125 -5.984375 L 1.53125 -5.984375 C 1.257812 -5.984375 1.015625 -5.859375 0.796875 -5.609375 C 0.585938 -5.367188 0.460938 -5.054688 0.421875 -4.671875 L 0.25 -4.671875 L 0.25 -6.328125 L 5.875 -6.328125 Z M 5.875 -4.671875 "/></g></g></g><g fill="#ffffff" fill-opacity="1"><g transform="translate(7.896349, 56.899413)"><g><path d="M 1.796875 -3.703125 L 1.8125 -3.703125 C 2.144531 -4.148438 2.539062 -4.375 3 -4.375 C 3.394531 -4.375 3.6875 -4.242188 3.875 -3.984375 C 4.0625 -3.722656 4.15625 -3.394531 4.15625 -3 L 4.15625 -0.640625 C 4.15625 -0.535156 4.179688 -0.4375 4.234375 -0.34375 C 4.296875 -0.257812 4.378906 -0.203125 4.484375 -0.171875 L 4.484375 0 L 2.5 0 L 2.5 -0.171875 C 2.644531 -0.203125 2.742188 -0.253906 2.796875 -0.328125 C 2.859375 -0.410156 2.890625 -0.550781 2.890625 -0.75 L 2.890625 -3.203125 C 2.890625 -3.578125 2.757812 -3.765625 2.5 -3.765625 C 2.382812 -3.765625 2.269531 -3.722656 2.15625 -3.640625 C 2.050781 -3.566406 1.929688 -3.429688 1.796875 -3.234375 L 1.796875 -0.75 C 1.796875 -0.570312 1.820312 -0.4375 1.875 -0.34375 C 1.9375 -0.25 2.035156 -0.191406 2.171875 -0.171875 L 2.171875 0 L 0.15625 0 L 0.15625 -0.171875 C 0.269531 -0.203125 0.347656 -0.238281 0.390625 -0.28125 C 0.441406 -0.320312 0.476562 -0.390625 0.5 -0.484375 C 0.519531 -0.578125 0.53125 -0.722656 0.53125 -0.921875 L 0.53125 -5.609375 C 0.53125 -5.796875 0.492188 -5.925781 0.421875 -6 C 0.359375 -6.082031 0.269531 -6.132812 0.15625 -6.15625 L 0.15625 -6.328125 L 1.796875 -6.328125 Z M 1.796875 -3.703125 "/></g></g></g><g fill="#ffffff" fill-opacity="1"><g transform="translate(12.497351, 56.899413)"><g><path d="M 2.140625 -4.375 C 2.515625 -4.375 2.828125 -4.273438 3.078125 -4.078125 C 3.328125 -3.890625 3.515625 -3.644531 3.640625 -3.34375 C 3.773438 -3.050781 3.847656 -2.742188 3.859375 -2.421875 L 3.859375 -2.265625 L 1.4375 -2.265625 C 1.46875 -1.765625 1.597656 -1.359375 1.828125 -1.046875 C 2.066406 -0.734375 2.359375 -0.578125 2.703125 -0.578125 C 2.921875 -0.578125 3.109375 -0.632812 3.265625 -0.75 C 3.421875 -0.863281 3.5625 -1.035156 3.6875 -1.265625 L 3.859375 -1.171875 C 3.648438 -0.722656 3.398438 -0.394531 3.109375 -0.1875 C 2.816406 0.0195312 2.476562 0.125 2.09375 0.125 C 1.695312 0.125 1.359375 0.03125 1.078125 -0.15625 C 0.796875 -0.351562 0.582031 -0.613281 0.4375 -0.9375 C 0.289062 -1.269531 0.21875 -1.644531 0.21875 -2.0625 C 0.21875 -2.46875 0.300781 -2.847656 0.46875 -3.203125 C 0.644531 -3.554688 0.878906 -3.835938 1.171875 -4.046875 C 1.472656 -4.265625 1.796875 -4.375 2.140625 -4.375 Z M 2.734375 -2.8125 C 2.734375 -3.238281 2.6875 -3.554688 2.59375 -3.765625 C 2.5 -3.984375 2.347656 -4.09375 2.140625 -4.09375 C 1.910156 -4.09375 1.734375 -3.953125 1.609375 -3.671875 C 1.492188 -3.398438 1.4375 -3.085938 1.4375 -2.734375 L 1.4375 -2.578125 L 2.734375 -2.578125 Z M 2.734375 -2.8125 "/></g></g></g><g fill="#ffffff" fill-opacity="1"><g transform="translate(16.527831, 56.899413)"><g/></g></g><g fill="#ffffff" fill-opacity="1"><g transform="translate(18.828326, 56.899413)"><g><path d="M 6.78125 -3.125 C 6.78125 -2.46875 6.640625 -1.90625 6.359375 -1.4375 C 6.078125 -0.96875 5.691406 -0.609375 5.203125 -0.359375 C 4.722656 -0.117188 4.191406 0 3.609375 0 L 0.15625 0 L 0.15625 -0.171875 C 0.382812 -0.171875 0.554688 -0.1875 0.671875 -0.21875 C 0.785156 -0.25 0.867188 -0.316406 0.921875 -0.421875 C 0.984375 -0.535156 1.015625 -0.710938 1.015625 -0.953125 L 1.015625 -5.359375 C 1.015625 -5.597656 0.984375 -5.773438 0.921875 -5.890625 C 0.867188 -6.003906 0.78125 -6.078125 0.65625 -6.109375 C 0.539062 -6.140625 0.375 -6.15625 0.15625 -6.15625 L 0.15625 -6.328125 L 3.453125 -6.328125 C 4.054688 -6.328125 4.609375 -6.203125 5.109375 -5.953125 C 5.617188 -5.710938 6.023438 -5.351562 6.328125 -4.875 C 6.628906 -4.394531 6.78125 -3.8125 6.78125 -3.125 Z M 3.203125 -0.328125 C 4.492188 -0.328125 5.140625 -1.242188 5.140625 -3.078125 C 5.140625 -4.097656 4.953125 -4.835938 4.578125 -5.296875 C 4.203125 -5.765625 3.734375 -6 3.171875 -6 L 2.5 -6 L 2.5 -0.9375 C 2.5 -0.757812 2.515625 -0.628906 2.546875 -0.546875 C 2.585938 -0.460938 2.65625 -0.40625 2.75 -0.375 C 2.851562 -0.34375 3.003906 -0.328125 3.203125 -0.328125 Z M 3.203125 -0.328125 "/></g></g></g><g fill="#ffffff" fill-opacity="1"><g transform="translate(25.923063, 56.899413)"><g><path d="M 2.140625 -4.375 C 2.515625 -4.375 2.828125 -4.273438 3.078125 -4.078125 C 3.328125 -3.890625 3.515625 -3.644531 3.640625 -3.34375 C 3.773438 -3.050781 3.847656 -2.742188 3.859375 -2.421875 L 3.859375 -2.265625 L 1.4375 -2.265625 C 1.46875 -1.765625 1.597656 -1.359375 1.828125 -1.046875 C 2.066406 -0.734375 2.359375 -0.578125 2.703125 -0.578125 C 2.921875 -0.578125 3.109375 -0.632812 3.265625 -0.75 C 3.421875 -0.863281 3.5625 -1.035156 3.6875 -1.265625 L 3.859375 -1.171875 C 3.648438 -0.722656 3.398438 -0.394531 3.109375 -0.1875 C 2.816406 0.0195312 2.476562 0.125 2.09375 0.125 C 1.695312 0.125 1.359375 0.03125 1.078125 -0.15625 C 0.796875 -0.351562 0.582031 -0.613281 0.4375 -0.9375 C 0.289062 -1.269531 0.21875 -1.644531 0.21875 -2.0625 C 0.21875 -2.46875 0.300781 -2.847656 0.46875 -3.203125 C 0.644531 -3.554688 0.878906 -3.835938 1.171875 -4.046875 C 1.472656 -4.265625 1.796875 -4.375 2.140625 -4.375 Z M 2.734375 -2.8125 C 2.734375 -3.238281 2.6875 -3.554688 2.59375 -3.765625 C 2.5 -3.984375 2.347656 -4.09375 2.140625 -4.09375 C 1.910156 -4.09375 1.734375 -3.953125 1.609375 -3.671875 C 1.492188 -3.398438 1.4375 -3.085938 1.4375 -2.734375 L 1.4375 -2.578125 L 2.734375 -2.578125 Z M 2.734375 -2.8125 "/></g></g></g><g fill="#ffffff" fill-opacity="1"><g transform="translate(29.953543, 56.899413)"><g><path d="M 2.140625 -4.375 C 2.515625 -4.375 2.828125 -4.273438 3.078125 -4.078125 C 3.328125 -3.890625 3.515625 -3.644531 3.640625 -3.34375 C 3.773438 -3.050781 3.847656 -2.742188 3.859375 -2.421875 L 3.859375 -2.265625 L 1.4375 -2.265625 C 1.46875 -1.765625 1.597656 -1.359375 1.828125 -1.046875 C 2.066406 -0.734375 2.359375 -0.578125 2.703125 -0.578125 C 2.921875 -0.578125 3.109375 -0.632812 3.265625 -0.75 C 3.421875 -0.863281 3.5625 -1.035156 3.6875 -1.265625 L 3.859375 -1.171875 C 3.648438 -0.722656 3.398438 -0.394531 3.109375 -0.1875 C 2.816406 0.0195312 2.476562 0.125 2.09375 0.125 C 1.695312 0.125 1.359375 0.03125 1.078125 -0.15625 C 0.796875 -0.351562 0.582031 -0.613281 0.4375 -0.9375 C 0.289062 -1.269531 0.21875 -1.644531 0.21875 -2.0625 C 0.21875 -2.46875 0.300781 -2.847656 0.46875 -3.203125 C 0.644531 -3.554688 0.878906 -3.835938 1.171875 -4.046875 C 1.472656 -4.265625 1.796875 -4.375 2.140625 -4.375 Z M 2.734375 -2.8125 C 2.734375 -3.238281 2.6875 -3.554688 2.59375 -3.765625 C 2.5 -3.984375 2.347656 -4.09375 2.140625 -4.09375 C 1.910156 -4.09375 1.734375 -3.953125 1.609375 -3.671875 C 1.492188 -3.398438 1.4375 -3.085938 1.4375 -2.734375 L 1.4375 -2.578125 L 2.734375 -2.578125 Z M 2.734375 -2.8125 "/></g></g></g><g fill="#ffffff" fill-opacity="1"><g transform="translate(33.984022, 56.899413)"><g><path d="M 2.90625 -4.375 C 3.1875 -4.375 3.4375 -4.273438 3.65625 -4.078125 C 3.882812 -3.878906 4.0625 -3.609375 4.1875 -3.265625 C 4.3125 -2.929688 4.375 -2.546875 4.375 -2.109375 C 4.375 -1.609375 4.289062 -1.1875 4.125 -0.84375 C 3.957031 -0.507812 3.75 -0.265625 3.5 -0.109375 C 3.257812 0.046875 3.023438 0.125 2.796875 0.125 C 2.429688 0.125 2.140625 -0.0351562 1.921875 -0.359375 L 1.90625 -0.359375 L 1.90625 1.25 C 1.90625 1.457031 1.945312 1.597656 2.03125 1.671875 C 2.125 1.742188 2.296875 1.78125 2.546875 1.78125 L 2.546875 1.953125 L 0.140625 1.953125 L 0.140625 1.78125 C 0.316406 1.78125 0.441406 1.738281 0.515625 1.65625 C 0.597656 1.570312 0.640625 1.429688 0.640625 1.234375 L 0.640625 -3.546875 C 0.640625 -3.753906 0.597656 -3.898438 0.515625 -3.984375 C 0.429688 -4.066406 0.304688 -4.109375 0.140625 -4.109375 L 0.140625 -4.265625 L 1.90625 -4.265625 L 1.90625 -3.765625 L 1.921875 -3.765625 C 2.171875 -4.171875 2.5 -4.375 2.90625 -4.375 Z M 1.90625 -3.28125 L 1.90625 -0.765625 C 2.144531 -0.460938 2.359375 -0.3125 2.546875 -0.3125 C 2.734375 -0.3125 2.863281 -0.441406 2.9375 -0.703125 C 3.019531 -0.960938 3.0625 -1.414062 3.0625 -2.0625 C 3.0625 -2.675781 3.015625 -3.117188 2.921875 -3.390625 C 2.828125 -3.671875 2.675781 -3.8125 2.46875 -3.8125 C 2.363281 -3.8125 2.257812 -3.753906 2.15625 -3.640625 C 2.050781 -3.535156 1.96875 -3.414062 1.90625 -3.28125 Z M 1.90625 -3.28125 "/></g></g></g><g fill="#ffffff" fill-opacity="1"><g transform="translate(38.585024, 56.899413)"><g/></g></g><g fill="#ffffff" fill-opacity="1"><g transform="translate(40.885519, 56.899413)"><g><path d="M 3.71875 -6.15625 C 3.40625 -6.144531 3.175781 -6.125 3.03125 -6.09375 C 2.894531 -6.070312 2.789062 -6.003906 2.71875 -5.890625 C 2.644531 -5.785156 2.609375 -5.609375 2.609375 -5.359375 L 2.609375 -0.84375 C 2.609375 -0.664062 2.648438 -0.535156 2.734375 -0.453125 C 2.828125 -0.378906 2.972656 -0.34375 3.171875 -0.34375 L 3.84375 -0.34375 C 4.363281 -0.34375 4.773438 -0.488281 5.078125 -0.78125 C 5.378906 -1.070312 5.601562 -1.53125 5.75 -2.15625 L 5.921875 -2.15625 L 5.703125 0 L 0.140625 0 L 0.140625 -0.171875 C 0.410156 -0.171875 0.613281 -0.191406 0.75 -0.234375 C 0.882812 -0.273438 0.984375 -0.347656 1.046875 -0.453125 C 1.109375 -0.566406 1.140625 -0.738281 1.140625 -0.96875 L 1.140625 -5.359375 C 1.140625 -5.609375 1.101562 -5.785156 1.03125 -5.890625 C 0.957031 -6.003906 0.859375 -6.070312 0.734375 -6.09375 C 0.609375 -6.125 0.410156 -6.144531 0.140625 -6.15625 L 0.140625 -6.328125 L 3.71875 -6.328125 Z M 3.71875 -6.15625 "/></g></g></g><g fill="#ffffff" fill-opacity="1"><g transform="translate(47.023254, 56.899413)"><g><path d="M 2.34375 -4.375 C 2.863281 -4.375 3.242188 -4.265625 3.484375 -4.046875 C 3.734375 -3.835938 3.859375 -3.566406 3.859375 -3.234375 L 3.859375 -0.953125 C 3.859375 -0.617188 3.945312 -0.453125 4.125 -0.453125 C 4.175781 -0.453125 4.21875 -0.460938 4.25 -0.484375 C 4.28125 -0.515625 4.316406 -0.566406 4.359375 -0.640625 L 4.4375 -0.546875 C 4.351562 -0.335938 4.21875 -0.171875 4.03125 -0.046875 C 3.851562 0.0664062 3.648438 0.125 3.421875 0.125 C 3.191406 0.125 3.003906 0.0664062 2.859375 -0.046875 C 2.710938 -0.160156 2.628906 -0.332031 2.609375 -0.5625 C 2.566406 -0.539062 2.507812 -0.5 2.4375 -0.4375 C 2.21875 -0.257812 2.015625 -0.117188 1.828125 -0.015625 C 1.648438 0.078125 1.441406 0.125 1.203125 0.125 C 0.960938 0.125 0.757812 0.0390625 0.59375 -0.125 C 0.4375 -0.300781 0.359375 -0.507812 0.359375 -0.75 C 0.359375 -1.070312 0.5 -1.359375 0.78125 -1.609375 C 1.0625 -1.859375 1.363281 -2.0625 1.6875 -2.21875 L 2.609375 -2.65625 L 2.609375 -3.5 C 2.609375 -3.65625 2.554688 -3.785156 2.453125 -3.890625 C 2.359375 -3.992188 2.210938 -4.046875 2.015625 -4.046875 C 1.835938 -4.046875 1.6875 -4.007812 1.5625 -3.9375 C 1.445312 -3.863281 1.390625 -3.773438 1.390625 -3.671875 C 1.390625 -3.628906 1.398438 -3.585938 1.421875 -3.546875 C 1.441406 -3.515625 1.46875 -3.484375 1.5 -3.453125 C 1.550781 -3.378906 1.59375 -3.3125 1.625 -3.25 C 1.65625 -3.195312 1.671875 -3.128906 1.671875 -3.046875 C 1.671875 -2.898438 1.613281 -2.78125 1.5 -2.6875 C 1.394531 -2.59375 1.253906 -2.546875 1.078125 -2.546875 C 0.878906 -2.546875 0.71875 -2.597656 0.59375 -2.703125 C 0.476562 -2.804688 0.421875 -2.945312 0.421875 -3.125 C 0.421875 -3.34375 0.503906 -3.546875 0.671875 -3.734375 C 0.847656 -3.929688 1.082031 -4.085938 1.375 -4.203125 C 1.675781 -4.316406 2 -4.375 2.34375 -4.375 Z M 1.609375 -1.15625 C 1.609375 -1 1.648438 -0.875 1.734375 -0.78125 C 1.816406 -0.695312 1.921875 -0.65625 2.046875 -0.65625 C 2.148438 -0.65625 2.242188 -0.671875 2.328125 -0.703125 C 2.410156 -0.742188 2.503906 -0.804688 2.609375 -0.890625 L 2.609375 -2.34375 C 1.941406 -2 1.609375 -1.601562 1.609375 -1.15625 Z M 1.609375 -1.15625 "/></g></g></g><g fill="#ffffff" fill-opacity="1"><g transform="translate(51.624256, 56.899413)"><g><path d="M 1.75 -1.265625 C 1.75 -0.992188 1.78125 -0.796875 1.84375 -0.671875 C 1.90625 -0.554688 2.007812 -0.5 2.15625 -0.5 C 2.28125 -0.5 2.40625 -0.546875 2.53125 -0.640625 C 2.664062 -0.742188 2.78125 -0.878906 2.875 -1.046875 L 2.875 -3.59375 C 2.875 -3.769531 2.832031 -3.894531 2.75 -3.96875 C 2.664062 -4.039062 2.53125 -4.085938 2.34375 -4.109375 L 2.34375 -4.265625 L 4.140625 -4.265625 L 4.140625 -0.5 C 4.140625 -0.300781 4.242188 -0.191406 4.453125 -0.171875 L 4.453125 0 L 2.875 0 L 2.875 -0.546875 C 2.707031 -0.347656 2.519531 -0.1875 2.3125 -0.0625 C 2.101562 0.0625 1.890625 0.125 1.671875 0.125 C 1.304688 0.125 1.015625 0.0078125 0.796875 -0.21875 C 0.585938 -0.457031 0.484375 -0.773438 0.484375 -1.171875 L 0.484375 -3.53125 C 0.484375 -3.71875 0.457031 -3.851562 0.40625 -3.9375 C 0.363281 -4.019531 0.273438 -4.078125 0.140625 -4.109375 L 0.140625 -4.265625 L 1.75 -4.265625 Z M 1.75 -1.265625 "/></g></g></g><g fill="#ffffff" fill-opacity="1"><g transform="translate(56.225258, 56.899413)"><g><path d="M 3 -4.375 C 3.363281 -4.375 3.640625 -4.25 3.828125 -4 C 4.023438 -3.75 4.125 -3.441406 4.125 -3.078125 L 4.125 -0.890625 C 4.125 -0.703125 4.128906 -0.566406 4.140625 -0.484375 C 4.160156 -0.410156 4.191406 -0.347656 4.234375 -0.296875 C 4.273438 -0.253906 4.34375 -0.210938 4.4375 -0.171875 L 4.4375 0 L 2.484375 0 L 2.484375 -0.171875 C 2.742188 -0.203125 2.875 -0.394531 2.875 -0.75 L 2.875 -3.140625 C 2.875 -3.566406 2.738281 -3.78125 2.46875 -3.78125 C 2.226562 -3.78125 1.992188 -3.609375 1.765625 -3.265625 L 1.765625 -0.703125 C 1.765625 -0.390625 1.894531 -0.210938 2.15625 -0.171875 L 2.15625 0 L 0.15625 0 L 0.15625 -0.171875 C 0.269531 -0.191406 0.351562 -0.242188 0.40625 -0.328125 C 0.46875 -0.410156 0.5 -0.550781 0.5 -0.75 L 0.5 -3.546875 C 0.5 -3.671875 0.472656 -3.785156 0.421875 -3.890625 C 0.367188 -4.003906 0.28125 -4.078125 0.15625 -4.109375 L 0.15625 -4.265625 L 1.765625 -4.265625 L 1.765625 -3.703125 C 1.960938 -3.929688 2.160156 -4.097656 2.359375 -4.203125 C 2.554688 -4.316406 2.769531 -4.375 3 -4.375 Z M 3 -4.375 "/></g></g></g><g fill="#ffffff" fill-opacity="1"><g transform="translate(60.82626, 56.899413)"><g><path d="M 3.953125 -0.953125 C 3.953125 -0.753906 3.988281 -0.613281 4.0625 -0.53125 C 4.132812 -0.457031 4.273438 -0.421875 4.484375 -0.421875 L 4.484375 -0.25 L 2.703125 0.125 L 2.703125 -0.5 L 2.671875 -0.5 C 2.578125 -0.289062 2.445312 -0.132812 2.28125 -0.03125 C 2.113281 0.0703125 1.929688 0.125 1.734375 0.125 C 1.429688 0.125 1.164062 0.03125 0.9375 -0.15625 C 0.707031 -0.351562 0.53125 -0.628906 0.40625 -0.984375 C 0.28125 -1.335938 0.21875 -1.734375 0.21875 -2.171875 C 0.21875 -2.628906 0.296875 -3.023438 0.453125 -3.359375 C 0.609375 -3.691406 0.804688 -3.941406 1.046875 -4.109375 C 1.296875 -4.285156 1.550781 -4.375 1.8125 -4.375 C 1.988281 -4.375 2.144531 -4.335938 2.28125 -4.265625 C 2.414062 -4.191406 2.554688 -4.078125 2.703125 -3.921875 L 2.703125 -5.609375 C 2.703125 -5.828125 2.648438 -5.96875 2.546875 -6.03125 C 2.453125 -6.101562 2.296875 -6.144531 2.078125 -6.15625 L 2.078125 -6.328125 L 3.953125 -6.328125 Z M 1.53125 -2.3125 C 1.53125 -1.695312 1.578125 -1.226562 1.671875 -0.90625 C 1.765625 -0.59375 1.921875 -0.4375 2.140625 -0.4375 C 2.335938 -0.4375 2.523438 -0.613281 2.703125 -0.96875 L 2.703125 -3.390625 C 2.597656 -3.597656 2.492188 -3.742188 2.390625 -3.828125 C 2.285156 -3.910156 2.171875 -3.953125 2.046875 -3.953125 C 1.847656 -3.953125 1.710938 -3.8125 1.640625 -3.53125 C 1.566406 -3.25 1.53125 -2.84375 1.53125 -2.3125 Z M 1.53125 -2.3125 "/></g></g></g><g fill="#ffffff" fill-opacity="1"><g transform="translate(65.427262, 56.899413)"><g><path d="M 2.859375 -4.375 C 3.003906 -4.375 3.117188 -4.316406 3.203125 -4.203125 C 3.296875 -4.085938 3.34375 -3.941406 3.34375 -3.765625 C 3.34375 -3.578125 3.296875 -3.421875 3.203125 -3.296875 C 3.117188 -3.179688 2.992188 -3.125 2.828125 -3.125 C 2.753906 -3.125 2.691406 -3.140625 2.640625 -3.171875 C 2.585938 -3.203125 2.519531 -3.242188 2.4375 -3.296875 C 2.320312 -3.378906 2.238281 -3.421875 2.1875 -3.421875 C 2.082031 -3.421875 1.992188 -3.335938 1.921875 -3.171875 C 1.859375 -3.015625 1.828125 -2.835938 1.828125 -2.640625 L 1.828125 -0.734375 C 1.828125 -0.523438 1.867188 -0.378906 1.953125 -0.296875 C 2.035156 -0.210938 2.179688 -0.171875 2.390625 -0.171875 L 2.390625 0 L 0.09375 0 L 0.09375 -0.171875 C 0.414062 -0.171875 0.578125 -0.351562 0.578125 -0.71875 L 0.578125 -3.546875 C 0.578125 -3.910156 0.414062 -4.097656 0.09375 -4.109375 L 0.09375 -4.265625 L 1.828125 -4.265625 L 1.828125 -3.5 L 1.84375 -3.5 C 2.132812 -4.082031 2.472656 -4.375 2.859375 -4.375 Z M 2.859375 -4.375 "/></g></g></g><g fill="#ffffff" fill-opacity="1"><g transform="translate(68.970027, 56.899413)"><g><path d="M 2.40625 -4.109375 C 2.257812 -4.097656 2.148438 -4.070312 2.078125 -4.03125 C 2.015625 -3.988281 1.984375 -3.925781 1.984375 -3.84375 C 1.984375 -3.707031 2.03125 -3.535156 2.125 -3.328125 L 2.859375 -1.546875 L 3.34375 -2.921875 C 3.46875 -3.296875 3.53125 -3.554688 3.53125 -3.703125 C 3.53125 -3.972656 3.367188 -4.109375 3.046875 -4.109375 L 3.046875 -4.265625 L 4.4375 -4.265625 L 4.4375 -4.109375 C 4.28125 -4.109375 4.148438 -4.03125 4.046875 -3.875 C 3.941406 -3.726562 3.820312 -3.46875 3.6875 -3.09375 L 2.390625 0.609375 C 2.222656 1.109375 2.039062 1.457031 1.84375 1.65625 C 1.65625 1.851562 1.414062 1.953125 1.125 1.953125 C 0.882812 1.953125 0.691406 1.882812 0.546875 1.75 C 0.398438 1.613281 0.328125 1.441406 0.328125 1.234375 C 0.328125 1.054688 0.378906 0.90625 0.484375 0.78125 C 0.597656 0.664062 0.734375 0.609375 0.890625 0.609375 C 1.097656 0.609375 1.242188 0.707031 1.328125 0.90625 C 1.359375 0.976562 1.375 1.078125 1.375 1.203125 C 1.375 1.296875 1.382812 1.363281 1.40625 1.40625 C 1.425781 1.457031 1.46875 1.484375 1.53125 1.484375 C 1.65625 1.484375 1.769531 1.382812 1.875 1.1875 C 1.988281 0.988281 2.117188 0.65625 2.265625 0.1875 L 0.859375 -3.21875 C 0.722656 -3.519531 0.609375 -3.734375 0.515625 -3.859375 C 0.429688 -3.984375 0.3125 -4.066406 0.15625 -4.109375 L 0.15625 -4.265625 L 2.40625 -4.265625 Z M 2.40625 -4.109375 "/></g></g></g></svg>