<svg xmlns="http://www.w3.org/2000/svg" xmlns:xlink="http://www.w3.org/1999/xlink" width="150" zoomAndPan="magnify" viewBox="0 0 112.5 112.499997" height="150" preserveAspectRatio="xMidYMid meet" version="1.0"><defs><g/><clipPath id="3ec15d5dec"><path d="M 0 0 L 112.003906 0 L 112.003906 112.003906 L 0 112.003906 Z M 0 0 " clip-rule="nonzero"/></clipPath></defs><g clip-path="url(#3ec15d5dec)"><path fill="#ffffff" d="M 0 0 L 112.003906 0 L 112.003906 112.003906 L 0 112.003906 Z M 0 0 " fill-opacity="1" fill-rule="nonzero"/><path fill="#000000" d="M 0 0 L 112.003906 0 L 112.003906 112.003906 L 0 112.003906 Z M 0 0 " fill-opacity="1" fill-rule="nonzero"/></g><g fill="#ffffff" fill-opacity="1"><g transform="translate(15.372499, 85.322956)"><g><path d="M 71.375 -31.40625 C 71.375 -25.132812 69.742188 -19.625 66.484375 -14.875 C 63.234375 -10.132812 58.835938 -6.46875 53.296875 -3.875 C 47.765625 -1.289062 41.710938 0 35.140625 0 L 2.921875 0 L 2.921875 -1.640625 C 6.203125 -1.703125 8.554688 -2.25 9.984375 -3.28125 C 11.421875 -4.320312 12.140625 -6.300781 12.140625 -9.21875 L 12.140625 -53.671875 C 12.140625 -56.597656 11.378906 -58.5625 9.859375 -59.5625 C 8.335938 -60.5625 6.023438 -61.0625 2.921875 -61.0625 L 2.921875 -62.703125 L 37.875 -62.703125 C 44.875 -62.703125 50.914062 -61.210938 56 -58.234375 C 61.082031 -55.253906 64.914062 -51.375 67.5 -46.59375 C 70.082031 -41.820312 71.375 -36.757812 71.375 -31.40625 Z M 22 -57.6875 L 22 -4.5625 C 25.039062 -3.644531 28.328125 -3.1875 31.859375 -3.1875 C 37.453125 -3.1875 42.378906 -4.328125 46.640625 -6.609375 C 50.898438 -8.898438 54.1875 -12.144531 56.5 -16.34375 C 58.8125 -20.539062 59.96875 -25.378906 59.96875 -30.859375 C 59.96875 -36.328125 58.8125 -41.207031 56.5 -45.5 C 54.1875 -49.789062 50.914062 -53.148438 46.6875 -55.578125 C 42.457031 -58.015625 37.601562 -59.234375 32.125 -59.234375 C 28.476562 -59.234375 25.101562 -58.71875 22 -57.6875 Z M 22 -57.6875 "/></g></g></g><g fill="#ffffff" fill-opacity="1"><g transform="translate(40.84832, 65.982813)"><g><path d="M 31.453125 -60.109375 C 28.335938 -60.109375 26.101562 -59.613281 24.75 -58.625 C 23.40625 -57.632812 22.734375 -55.644531 22.734375 -52.65625 L 22.734375 -7.546875 C 22.734375 -6.285156 22.988281 -5.382812 23.5 -4.84375 C 24.007812 -4.3125 24.863281 -4.046875 26.0625 -4.046875 L 39.4375 -4.046875 C 42.550781 -4.046875 45.125 -4.445312 47.15625 -5.25 C 49.195312 -6.0625 50.953125 -7.378906 52.421875 -9.203125 C 53.890625 -11.035156 55.3125 -13.628906 56.6875 -16.984375 L 58.21875 -16.4375 L 53.015625 0 L 3.78125 0 L 3.78125 -1.625 L 4.40625 -1.625 C 7.457031 -1.625 9.65625 -2.160156 11 -3.234375 C 12.351562 -4.316406 13.03125 -6.265625 13.03125 -9.078125 L 13.03125 -52.734375 C 13.03125 -55.492188 12.328125 -57.410156 10.921875 -58.484375 C 9.515625 -59.566406 7.3125 -60.109375 4.3125 -60.109375 L 3.78125 -60.109375 L 3.78125 -61.71875 L 31.453125 -61.71875 Z M 31.453125 -60.109375 "/></g></g></g><g fill="#ffffff" fill-opacity="1"><g transform="translate(2.14355, 100.924395)"><g><path d="M 8.8125 -7 L 8.5625 -7 C 8.5 -7.644531 8.296875 -8.132812 7.953125 -8.46875 C 7.609375 -8.800781 7.21875 -8.96875 6.78125 -8.96875 L 5.703125 -8.96875 L 5.703125 -1.484375 C 5.703125 -1.148438 5.742188 -0.894531 5.828125 -0.71875 C 5.921875 -0.539062 6.0625 -0.421875 6.25 -0.359375 C 6.445312 -0.296875 6.722656 -0.257812 7.078125 -0.25 L 7.078125 0 L 2.109375 0 L 2.109375 -0.25 C 2.460938 -0.25 2.734375 -0.273438 2.921875 -0.328125 C 3.109375 -0.378906 3.25 -0.488281 3.34375 -0.65625 C 3.4375 -0.832031 3.484375 -1.101562 3.484375 -1.46875 L 3.484375 -8.96875 L 2.296875 -8.96875 C 1.890625 -8.96875 1.523438 -8.785156 1.203125 -8.421875 C 0.878906 -8.054688 0.6875 -7.582031 0.625 -7 L 0.375 -7 L 0.375 -9.484375 L 8.8125 -9.484375 Z M 8.8125 -7 "/></g></g></g><g fill="#ffffff" fill-opacity="1"><g transform="translate(11.349492, 100.924395)"><g><path d="M 2.6875 -5.546875 L 2.71875 -5.546875 C 3.21875 -6.210938 3.8125 -6.546875 4.5 -6.546875 C 5.09375 -6.546875 5.523438 -6.351562 5.796875 -5.96875 C 6.078125 -5.582031 6.21875 -5.09375 6.21875 -4.5 L 6.21875 -0.96875 C 6.21875 -0.800781 6.265625 -0.648438 6.359375 -0.515625 C 6.453125 -0.378906 6.578125 -0.289062 6.734375 -0.25 L 6.734375 0 L 3.75 0 L 3.75 -0.25 C 3.957031 -0.300781 4.101562 -0.382812 4.1875 -0.5 C 4.28125 -0.613281 4.328125 -0.820312 4.328125 -1.125 L 4.328125 -4.796875 C 4.328125 -5.367188 4.128906 -5.65625 3.734375 -5.65625 C 3.566406 -5.65625 3.398438 -5.59375 3.234375 -5.46875 C 3.078125 -5.34375 2.894531 -5.140625 2.6875 -4.859375 L 2.6875 -1.125 C 2.6875 -0.851562 2.726562 -0.644531 2.8125 -0.5 C 2.90625 -0.363281 3.050781 -0.28125 3.25 -0.25 L 3.25 0 L 0.234375 0 L 0.234375 -0.25 C 0.398438 -0.289062 0.519531 -0.34375 0.59375 -0.40625 C 0.664062 -0.476562 0.71875 -0.582031 0.75 -0.71875 C 0.78125 -0.863281 0.796875 -1.082031 0.796875 -1.375 L 0.796875 -8.421875 C 0.796875 -8.691406 0.742188 -8.882812 0.640625 -9 C 0.546875 -9.113281 0.410156 -9.191406 0.234375 -9.234375 L 0.234375 -9.484375 L 2.6875 -9.484375 Z M 2.6875 -5.546875 "/></g></g></g><g fill="#ffffff" fill-opacity="1"><g transform="translate(18.2505, 100.924395)"><g><path d="M 3.203125 -6.546875 C 3.765625 -6.546875 4.234375 -6.40625 4.609375 -6.125 C 4.992188 -5.84375 5.28125 -5.476562 5.46875 -5.03125 C 5.664062 -4.582031 5.769531 -4.117188 5.78125 -3.640625 L 5.78125 -3.40625 L 2.15625 -3.40625 C 2.207031 -2.644531 2.40625 -2.03125 2.75 -1.5625 C 3.09375 -1.09375 3.523438 -0.859375 4.046875 -0.859375 C 4.378906 -0.859375 4.660156 -0.945312 4.890625 -1.125 C 5.128906 -1.300781 5.34375 -1.5625 5.53125 -1.90625 L 5.78125 -1.75 C 5.46875 -1.09375 5.09375 -0.601562 4.65625 -0.28125 C 4.226562 0.03125 3.71875 0.1875 3.125 0.1875 C 2.539062 0.1875 2.039062 0.046875 1.625 -0.234375 C 1.207031 -0.523438 0.882812 -0.921875 0.65625 -1.421875 C 0.4375 -1.921875 0.328125 -2.476562 0.328125 -3.09375 C 0.328125 -3.707031 0.457031 -4.273438 0.71875 -4.796875 C 0.976562 -5.328125 1.328125 -5.75 1.765625 -6.0625 C 2.203125 -6.382812 2.679688 -6.546875 3.203125 -6.546875 Z M 4.09375 -4.203125 C 4.09375 -4.859375 4.019531 -5.34375 3.875 -5.65625 C 3.738281 -5.96875 3.515625 -6.125 3.203125 -6.125 C 2.867188 -6.125 2.609375 -5.914062 2.421875 -5.5 C 2.242188 -5.09375 2.15625 -4.625 2.15625 -4.09375 L 2.15625 -3.859375 L 4.09375 -3.859375 Z M 4.09375 -4.203125 "/></g></g></g><g fill="#ffffff" fill-opacity="1"><g transform="translate(24.295786, 100.924395)"><g/></g></g><g fill="#ffffff" fill-opacity="1"><g transform="translate(27.746281, 100.924395)"><g><path d="M 10.15625 -4.671875 C 10.15625 -3.703125 9.945312 -2.863281 9.53125 -2.15625 C 9.113281 -1.445312 8.539062 -0.910156 7.8125 -0.546875 C 7.09375 -0.179688 6.289062 0 5.40625 0 L 0.234375 0 L 0.234375 -0.25 C 0.578125 -0.25 0.832031 -0.273438 1 -0.328125 C 1.175781 -0.378906 1.304688 -0.484375 1.390625 -0.640625 C 1.484375 -0.804688 1.53125 -1.070312 1.53125 -1.4375 L 1.53125 -8.03125 C 1.53125 -8.382812 1.484375 -8.644531 1.390625 -8.8125 C 1.296875 -8.988281 1.160156 -9.101562 0.984375 -9.15625 C 0.816406 -9.207031 0.566406 -9.234375 0.234375 -9.234375 L 0.234375 -9.484375 L 5.1875 -9.484375 C 6.09375 -9.484375 6.921875 -9.300781 7.671875 -8.9375 C 8.421875 -8.570312 9.019531 -8.023438 9.46875 -7.296875 C 9.925781 -6.578125 10.15625 -5.703125 10.15625 -4.671875 Z M 4.796875 -0.484375 C 6.734375 -0.484375 7.703125 -1.859375 7.703125 -4.609375 C 7.703125 -6.140625 7.421875 -7.253906 6.859375 -7.953125 C 6.304688 -8.648438 5.609375 -9 4.765625 -9 L 3.734375 -9 L 3.734375 -1.40625 C 3.734375 -1.132812 3.765625 -0.9375 3.828125 -0.8125 C 3.890625 -0.6875 3.992188 -0.597656 4.140625 -0.546875 C 4.285156 -0.503906 4.503906 -0.484375 4.796875 -0.484375 Z M 4.796875 -0.484375 "/></g></g></g><g fill="#ffffff" fill-opacity="1"><g transform="translate(38.387623, 100.924395)"><g><path d="M 3.203125 -6.546875 C 3.765625 -6.546875 4.234375 -6.40625 4.609375 -6.125 C 4.992188 -5.84375 5.28125 -5.476562 5.46875 -5.03125 C 5.664062 -4.582031 5.769531 -4.117188 5.78125 -3.640625 L 5.78125 -3.40625 L 2.15625 -3.40625 C 2.207031 -2.644531 2.40625 -2.03125 2.75 -1.5625 C 3.09375 -1.09375 3.523438 -0.859375 4.046875 -0.859375 C 4.378906 -0.859375 4.660156 -0.945312 4.890625 -1.125 C 5.128906 -1.300781 5.34375 -1.5625 5.53125 -1.90625 L 5.78125 -1.75 C 5.46875 -1.09375 5.09375 -0.601562 4.65625 -0.28125 C 4.226562 0.03125 3.71875 0.1875 3.125 0.1875 C 2.539062 0.1875 2.039062 0.046875 1.625 -0.234375 C 1.207031 -0.523438 0.882812 -0.921875 0.65625 -1.421875 C 0.4375 -1.921875 0.328125 -2.476562 0.328125 -3.09375 C 0.328125 -3.707031 0.457031 -4.273438 0.71875 -4.796875 C 0.976562 -5.328125 1.328125 -5.75 1.765625 -6.0625 C 2.203125 -6.382812 2.679688 -6.546875 3.203125 -6.546875 Z M 4.09375 -4.203125 C 4.09375 -4.859375 4.019531 -5.34375 3.875 -5.65625 C 3.738281 -5.96875 3.515625 -6.125 3.203125 -6.125 C 2.867188 -6.125 2.609375 -5.914062 2.421875 -5.5 C 2.242188 -5.09375 2.15625 -4.625 2.15625 -4.09375 L 2.15625 -3.859375 L 4.09375 -3.859375 Z M 4.09375 -4.203125 "/></g></g></g><g fill="#ffffff" fill-opacity="1"><g transform="translate(44.432909, 100.924395)"><g><path d="M 3.203125 -6.546875 C 3.765625 -6.546875 4.234375 -6.40625 4.609375 -6.125 C 4.992188 -5.84375 5.28125 -5.476562 5.46875 -5.03125 C 5.664062 -4.582031 5.769531 -4.117188 5.78125 -3.640625 L 5.78125 -3.40625 L 2.15625 -3.40625 C 2.207031 -2.644531 2.40625 -2.03125 2.75 -1.5625 C 3.09375 -1.09375 3.523438 -0.859375 4.046875 -0.859375 C 4.378906 -0.859375 4.660156 -0.945312 4.890625 -1.125 C 5.128906 -1.300781 5.34375 -1.5625 5.53125 -1.90625 L 5.78125 -1.75 C 5.46875 -1.09375 5.09375 -0.601562 4.65625 -0.28125 C 4.226562 0.03125 3.71875 0.1875 3.125 0.1875 C 2.539062 0.1875 2.039062 0.046875 1.625 -0.234375 C 1.207031 -0.523438 0.882812 -0.921875 0.65625 -1.421875 C 0.4375 -1.921875 0.328125 -2.476562 0.328125 -3.09375 C 0.328125 -3.707031 0.457031 -4.273438 0.71875 -4.796875 C 0.976562 -5.328125 1.328125 -5.75 1.765625 -6.0625 C 2.203125 -6.382812 2.679688 -6.546875 3.203125 -6.546875 Z M 4.09375 -4.203125 C 4.09375 -4.859375 4.019531 -5.34375 3.875 -5.65625 C 3.738281 -5.96875 3.515625 -6.125 3.203125 -6.125 C 2.867188 -6.125 2.609375 -5.914062 2.421875 -5.5 C 2.242188 -5.09375 2.15625 -4.625 2.15625 -4.09375 L 2.15625 -3.859375 L 4.09375 -3.859375 Z M 4.09375 -4.203125 "/></g></g></g><g fill="#ffffff" fill-opacity="1"><g transform="translate(50.478194, 100.924395)"><g><path d="M 4.34375 -6.546875 C 4.769531 -6.546875 5.148438 -6.398438 5.484375 -6.109375 C 5.816406 -5.816406 6.078125 -5.414062 6.265625 -4.90625 C 6.460938 -4.394531 6.5625 -3.816406 6.5625 -3.171875 C 6.5625 -2.421875 6.4375 -1.789062 6.1875 -1.28125 C 5.9375 -0.78125 5.628906 -0.410156 5.265625 -0.171875 C 4.898438 0.0664062 4.539062 0.1875 4.1875 0.1875 C 3.632812 0.1875 3.203125 -0.0507812 2.890625 -0.53125 L 2.859375 -0.53125 L 2.859375 1.859375 C 2.859375 2.171875 2.921875 2.378906 3.046875 2.484375 C 3.179688 2.597656 3.441406 2.660156 3.828125 2.671875 L 3.828125 2.921875 L 0.203125 2.921875 L 0.203125 2.671875 C 0.472656 2.671875 0.664062 2.609375 0.78125 2.484375 C 0.90625 2.359375 0.96875 2.144531 0.96875 1.84375 L 0.96875 -5.328125 C 0.96875 -5.628906 0.90625 -5.84375 0.78125 -5.96875 C 0.65625 -6.09375 0.460938 -6.15625 0.203125 -6.15625 L 0.203125 -6.40625 L 2.859375 -6.40625 L 2.859375 -5.640625 L 2.890625 -5.640625 C 3.253906 -6.242188 3.738281 -6.546875 4.34375 -6.546875 Z M 2.859375 -4.90625 L 2.859375 -1.140625 C 3.210938 -0.691406 3.53125 -0.46875 3.8125 -0.46875 C 4.101562 -0.46875 4.300781 -0.660156 4.40625 -1.046875 C 4.519531 -1.441406 4.578125 -2.125 4.578125 -3.09375 C 4.578125 -4.019531 4.507812 -4.6875 4.375 -5.09375 C 4.25 -5.507812 4.03125 -5.71875 3.71875 -5.71875 C 3.550781 -5.71875 3.390625 -5.632812 3.234375 -5.46875 C 3.078125 -5.3125 2.953125 -5.125 2.859375 -4.90625 Z M 2.859375 -4.90625 "/></g></g></g><g fill="#ffffff" fill-opacity="1"><g transform="translate(57.379202, 100.924395)"><g/></g></g><g fill="#ffffff" fill-opacity="1"><g transform="translate(60.829697, 100.924395)"><g><path d="M 5.578125 -9.234375 C 5.109375 -9.222656 4.765625 -9.195312 4.546875 -9.15625 C 4.335938 -9.113281 4.179688 -9.007812 4.078125 -8.84375 C 3.972656 -8.675781 3.921875 -8.40625 3.921875 -8.03125 L 3.921875 -1.265625 C 3.921875 -1.003906 3.984375 -0.8125 4.109375 -0.6875 C 4.242188 -0.570312 4.460938 -0.515625 4.765625 -0.515625 L 5.765625 -0.515625 C 6.535156 -0.515625 7.148438 -0.734375 7.609375 -1.171875 C 8.066406 -1.609375 8.40625 -2.296875 8.625 -3.234375 L 8.875 -3.234375 L 8.546875 0 L 0.21875 0 L 0.21875 -0.25 C 0.625 -0.257812 0.925781 -0.289062 1.125 -0.34375 C 1.332031 -0.40625 1.476562 -0.519531 1.5625 -0.6875 C 1.65625 -0.851562 1.703125 -1.109375 1.703125 -1.453125 L 1.703125 -8.03125 C 1.703125 -8.40625 1.648438 -8.675781 1.546875 -8.84375 C 1.441406 -9.007812 1.296875 -9.113281 1.109375 -9.15625 C 0.921875 -9.195312 0.625 -9.222656 0.21875 -9.234375 L 0.21875 -9.484375 L 5.578125 -9.484375 Z M 5.578125 -9.234375 "/></g></g></g><g fill="#ffffff" fill-opacity="1"><g transform="translate(70.035639, 100.924395)"><g><path d="M 3.5 -6.546875 C 4.289062 -6.546875 4.867188 -6.382812 5.234375 -6.0625 C 5.609375 -5.75 5.796875 -5.34375 5.796875 -4.84375 L 5.796875 -1.4375 C 5.796875 -0.925781 5.925781 -0.671875 6.1875 -0.671875 C 6.257812 -0.671875 6.316406 -0.691406 6.359375 -0.734375 C 6.410156 -0.773438 6.472656 -0.847656 6.546875 -0.953125 L 6.65625 -0.828125 C 6.53125 -0.515625 6.328125 -0.265625 6.046875 -0.078125 C 5.773438 0.0976562 5.46875 0.1875 5.125 0.1875 C 4.78125 0.1875 4.5 0.101562 4.28125 -0.0625 C 4.0625 -0.238281 3.9375 -0.5 3.90625 -0.84375 C 3.851562 -0.800781 3.769531 -0.738281 3.65625 -0.65625 C 3.332031 -0.382812 3.03125 -0.175781 2.75 -0.03125 C 2.476562 0.113281 2.164062 0.1875 1.8125 0.1875 C 1.445312 0.1875 1.140625 0.0625 0.890625 -0.1875 C 0.648438 -0.445312 0.53125 -0.757812 0.53125 -1.125 C 0.53125 -1.601562 0.738281 -2.03125 1.15625 -2.40625 C 1.582031 -2.789062 2.039062 -3.097656 2.53125 -3.328125 L 3.90625 -3.984375 L 3.90625 -5.25 C 3.90625 -5.476562 3.832031 -5.671875 3.6875 -5.828125 C 3.550781 -5.992188 3.328125 -6.078125 3.015625 -6.078125 C 2.753906 -6.078125 2.53125 -6.019531 2.34375 -5.90625 C 2.164062 -5.789062 2.078125 -5.65625 2.078125 -5.5 C 2.078125 -5.445312 2.09375 -5.390625 2.125 -5.328125 C 2.164062 -5.273438 2.207031 -5.222656 2.25 -5.171875 C 2.332031 -5.066406 2.394531 -4.96875 2.4375 -4.875 C 2.488281 -4.789062 2.515625 -4.6875 2.515625 -4.5625 C 2.515625 -4.34375 2.429688 -4.164062 2.265625 -4.03125 C 2.097656 -3.894531 1.878906 -3.828125 1.609375 -3.828125 C 1.316406 -3.828125 1.078125 -3.90625 0.890625 -4.0625 C 0.710938 -4.21875 0.625 -4.421875 0.625 -4.671875 C 0.625 -5.003906 0.753906 -5.316406 1.015625 -5.609375 C 1.273438 -5.898438 1.625 -6.128906 2.0625 -6.296875 C 2.507812 -6.460938 2.988281 -6.546875 3.5 -6.546875 Z M 2.421875 -1.71875 C 2.421875 -1.5 2.476562 -1.320312 2.59375 -1.1875 C 2.71875 -1.050781 2.878906 -0.984375 3.078125 -0.984375 C 3.234375 -0.984375 3.375 -1.007812 3.5 -1.0625 C 3.625 -1.113281 3.757812 -1.203125 3.90625 -1.328125 L 3.90625 -3.5 C 2.914062 -3 2.421875 -2.40625 2.421875 -1.71875 Z M 2.421875 -1.71875 "/></g></g></g><g fill="#ffffff" fill-opacity="1"><g transform="translate(76.936647, 100.924395)"><g><path d="M 2.625 -1.890625 C 2.625 -1.484375 2.671875 -1.191406 2.765625 -1.015625 C 2.859375 -0.835938 3.015625 -0.75 3.234375 -0.75 C 3.421875 -0.75 3.609375 -0.820312 3.796875 -0.96875 C 3.992188 -1.113281 4.164062 -1.316406 4.3125 -1.578125 L 4.3125 -5.375 C 4.3125 -5.644531 4.25 -5.832031 4.125 -5.9375 C 4 -6.050781 3.796875 -6.125 3.515625 -6.15625 L 3.515625 -6.40625 L 6.203125 -6.40625 L 6.203125 -0.765625 C 6.203125 -0.453125 6.359375 -0.28125 6.671875 -0.25 L 6.671875 0 L 4.3125 0 L 4.3125 -0.828125 C 4.0625 -0.523438 3.78125 -0.28125 3.46875 -0.09375 C 3.15625 0.09375 2.832031 0.1875 2.5 0.1875 C 1.957031 0.1875 1.523438 0.0078125 1.203125 -0.34375 C 0.890625 -0.695312 0.734375 -1.164062 0.734375 -1.75 L 0.734375 -5.28125 C 0.734375 -5.570312 0.695312 -5.78125 0.625 -5.90625 C 0.550781 -6.03125 0.410156 -6.113281 0.203125 -6.15625 L 0.203125 -6.40625 L 2.625 -6.40625 Z M 2.625 -1.890625 "/></g></g></g><g fill="#ffffff" fill-opacity="1"><g transform="translate(83.837655, 100.924395)"><g><path d="M 4.5 -6.546875 C 5.050781 -6.546875 5.46875 -6.359375 5.75 -5.984375 C 6.039062 -5.617188 6.1875 -5.164062 6.1875 -4.625 L 6.1875 -1.328125 C 6.1875 -1.054688 6.195312 -0.859375 6.21875 -0.734375 C 6.25 -0.609375 6.289062 -0.515625 6.34375 -0.453125 C 6.40625 -0.390625 6.507812 -0.320312 6.65625 -0.25 L 6.65625 0 L 3.71875 0 L 3.71875 -0.25 C 4.101562 -0.289062 4.296875 -0.582031 4.296875 -1.125 L 4.296875 -4.71875 C 4.296875 -5.351562 4.097656 -5.671875 3.703125 -5.671875 C 3.335938 -5.671875 2.988281 -5.410156 2.65625 -4.890625 L 2.65625 -1.046875 C 2.65625 -0.585938 2.847656 -0.320312 3.234375 -0.25 L 3.234375 0 L 0.234375 0 L 0.234375 -0.25 C 0.398438 -0.28125 0.53125 -0.359375 0.625 -0.484375 C 0.71875 -0.617188 0.765625 -0.832031 0.765625 -1.125 L 0.765625 -5.328125 C 0.765625 -5.503906 0.722656 -5.671875 0.640625 -5.828125 C 0.566406 -5.992188 0.429688 -6.101562 0.234375 -6.15625 L 0.234375 -6.40625 L 2.65625 -6.40625 L 2.65625 -5.546875 C 2.945312 -5.890625 3.238281 -6.140625 3.53125 -6.296875 C 3.820312 -6.460938 4.144531 -6.546875 4.5 -6.546875 Z M 4.5 -6.546875 "/></g></g></g><g fill="#ffffff" fill-opacity="1"><g transform="translate(90.738663, 100.924395)"><g><path d="M 5.9375 -1.421875 C 5.9375 -1.128906 5.988281 -0.921875 6.09375 -0.796875 C 6.207031 -0.679688 6.414062 -0.625 6.71875 -0.625 L 6.71875 -0.375 L 4.046875 0.171875 L 4.046875 -0.75 L 4.015625 -0.75 C 3.867188 -0.445312 3.664062 -0.210938 3.40625 -0.046875 C 3.15625 0.109375 2.882812 0.1875 2.59375 0.1875 C 2.15625 0.1875 1.757812 0.0390625 1.40625 -0.25 C 1.0625 -0.539062 0.789062 -0.945312 0.59375 -1.46875 C 0.40625 -2 0.3125 -2.59375 0.3125 -3.25 C 0.3125 -3.945312 0.425781 -4.546875 0.65625 -5.046875 C 0.894531 -5.546875 1.195312 -5.921875 1.5625 -6.171875 C 1.9375 -6.421875 2.320312 -6.546875 2.71875 -6.546875 C 2.976562 -6.546875 3.207031 -6.492188 3.40625 -6.390625 C 3.613281 -6.285156 3.828125 -6.113281 4.046875 -5.875 L 4.046875 -8.40625 C 4.046875 -8.738281 3.972656 -8.957031 3.828125 -9.0625 C 3.679688 -9.164062 3.441406 -9.222656 3.109375 -9.234375 L 3.109375 -9.484375 L 5.9375 -9.484375 Z M 2.296875 -3.484375 C 2.296875 -2.546875 2.363281 -1.835938 2.5 -1.359375 C 2.644531 -0.890625 2.878906 -0.65625 3.203125 -0.65625 C 3.503906 -0.65625 3.785156 -0.925781 4.046875 -1.46875 L 4.046875 -5.078125 C 3.890625 -5.390625 3.734375 -5.609375 3.578125 -5.734375 C 3.421875 -5.859375 3.25 -5.921875 3.0625 -5.921875 C 2.769531 -5.921875 2.566406 -5.707031 2.453125 -5.28125 C 2.347656 -4.863281 2.296875 -4.265625 2.296875 -3.484375 Z M 2.296875 -3.484375 "/></g></g></g><g fill="#ffffff" fill-opacity="1"><g transform="translate(97.639671, 100.924395)"><g><path d="M 4.28125 -6.546875 C 4.5 -6.546875 4.675781 -6.460938 4.8125 -6.296875 C 4.945312 -6.128906 5.015625 -5.910156 5.015625 -5.640625 C 5.015625 -5.359375 4.945312 -5.128906 4.8125 -4.953125 C 4.675781 -4.773438 4.488281 -4.6875 4.25 -4.6875 C 4.132812 -4.6875 4.035156 -4.707031 3.953125 -4.75 C 3.867188 -4.800781 3.769531 -4.867188 3.65625 -4.953125 C 3.476562 -5.066406 3.347656 -5.125 3.265625 -5.125 C 3.117188 -5.125 2.992188 -5.003906 2.890625 -4.765625 C 2.796875 -4.535156 2.75 -4.265625 2.75 -3.953125 L 2.75 -1.09375 C 2.75 -0.789062 2.804688 -0.570312 2.921875 -0.4375 C 3.046875 -0.3125 3.265625 -0.25 3.578125 -0.25 L 3.578125 0 L 0.15625 0 L 0.15625 -0.25 C 0.625 -0.25 0.859375 -0.523438 0.859375 -1.078125 L 0.859375 -5.328125 C 0.859375 -5.867188 0.625 -6.144531 0.15625 -6.15625 L 0.15625 -6.40625 L 2.75 -6.40625 L 2.75 -5.25 L 2.765625 -5.25 C 3.203125 -6.113281 3.707031 -6.546875 4.28125 -6.546875 Z M 4.28125 -6.546875 "/></g></g></g><g fill="#ffffff" fill-opacity="1"><g transform="translate(102.953436, 100.924395)"><g><path d="M 3.59375 -6.15625 C 3.375 -6.144531 3.21875 -6.109375 3.125 -6.046875 C 3.03125 -5.984375 2.984375 -5.882812 2.984375 -5.75 C 2.984375 -5.5625 3.050781 -5.304688 3.1875 -4.984375 L 4.296875 -2.3125 L 5.015625 -4.390625 C 5.203125 -4.953125 5.296875 -5.335938 5.296875 -5.546875 C 5.296875 -5.953125 5.050781 -6.15625 4.5625 -6.15625 L 4.5625 -6.40625 L 6.65625 -6.40625 L 6.65625 -6.15625 C 6.425781 -6.15625 6.226562 -6.039062 6.0625 -5.8125 C 5.90625 -5.59375 5.726562 -5.203125 5.53125 -4.640625 L 3.59375 0.921875 C 3.332031 1.671875 3.054688 2.191406 2.765625 2.484375 C 2.472656 2.773438 2.113281 2.921875 1.6875 2.921875 C 1.320312 2.921875 1.03125 2.816406 0.8125 2.609375 C 0.59375 2.410156 0.484375 2.15625 0.484375 1.84375 C 0.484375 1.59375 0.566406 1.375 0.734375 1.1875 C 0.898438 1.007812 1.101562 0.921875 1.34375 0.921875 C 1.65625 0.921875 1.867188 1.066406 1.984375 1.359375 C 2.035156 1.472656 2.0625 1.625 2.0625 1.8125 C 2.0625 1.945312 2.078125 2.046875 2.109375 2.109375 C 2.140625 2.179688 2.203125 2.21875 2.296875 2.21875 C 2.472656 2.21875 2.644531 2.066406 2.8125 1.765625 C 2.976562 1.472656 3.171875 0.984375 3.390625 0.296875 L 1.28125 -4.8125 C 1.09375 -5.269531 0.925781 -5.59375 0.78125 -5.78125 C 0.644531 -5.976562 0.460938 -6.101562 0.234375 -6.15625 L 0.234375 -6.40625 L 3.59375 -6.40625 Z M 3.59375 -6.15625 "/></g></g></g></svg>