<svg xmlns="http://www.w3.org/2000/svg" xmlns:xlink="http://www.w3.org/1999/xlink" width="110" zoomAndPan="magnify" viewBox="0 0 82.5 74.999997" height="100" preserveAspectRatio="xMidYMid meet" version="1.0"><defs><g/><clipPath id="a511b13431"><path d="M 0 0.226562 L 82.003906 0.226562 L 82.003906 74.773438 L 0 74.773438 Z M 0 0.226562 " clip-rule="nonzero"/></clipPath></defs><g clip-path="url(#a511b13431)"><path fill="#ffffff" d="M 0 0.226562 L 82.003906 0.226562 L 82.003906 74.773438 L 0 74.773438 Z M 0 0.226562 " fill-opacity="1" fill-rule="nonzero"/><path fill="#000000" d="M 0 0.226562 L 82.003906 0.226562 L 82.003906 74.773438 L 0 74.773438 Z M 0 0.226562 " fill-opacity="1" fill-rule="nonzero"/></g><g fill="#ffffff" fill-opacity="1"><g transform="translate(16.200507, 55.905932)"><g><path d="M 43.578125 -19.171875 C 43.578125 -15.335938 42.582031 -11.972656 40.59375 -9.078125 C 38.601562 -6.179688 35.914062 -3.941406 32.53125 -2.359375 C 29.15625 -0.785156 25.460938 0 21.453125 0 L 1.78125 0 L 1.78125 -1 C 3.789062 -1.039062 5.226562 -1.375 6.09375 -2 C 6.96875 -2.632812 7.40625 -3.84375 7.40625 -5.625 L 7.40625 -32.765625 C 7.40625 -34.546875 6.941406 -35.742188 6.015625 -36.359375 C 5.085938 -36.972656 3.675781 -37.28125 1.78125 -37.28125 L 1.78125 -38.28125 L 23.125 -38.28125 C 27.394531 -38.28125 31.078125 -37.367188 34.171875 -35.546875 C 37.273438 -33.722656 39.617188 -31.351562 41.203125 -28.4375 C 42.785156 -25.53125 43.578125 -22.441406 43.578125 -19.171875 Z M 13.421875 -35.21875 L 13.421875 -2.78125 C 15.285156 -2.226562 17.296875 -1.953125 19.453125 -1.953125 C 22.867188 -1.953125 25.875 -2.644531 28.46875 -4.03125 C 31.070312 -5.425781 33.078125 -7.40625 34.484375 -9.96875 C 35.898438 -12.53125 36.609375 -15.484375 36.609375 -18.828125 C 36.609375 -22.171875 35.898438 -25.148438 34.484375 -27.765625 C 33.078125 -30.390625 31.082031 -32.441406 28.5 -33.921875 C 25.914062 -35.410156 22.953125 -36.15625 19.609375 -36.15625 C 17.378906 -36.15625 15.316406 -35.84375 13.421875 -35.21875 Z M 13.421875 -35.21875 "/></g></g></g><g fill="#ffffff" fill-opacity="1"><g transform="translate(31.751759, 44.100091)"><g><path d="M 19.1875 -36.6875 C 17.289062 -36.6875 15.929688 -36.382812 15.109375 -35.78125 C 14.285156 -35.175781 13.875 -33.960938 13.875 -32.140625 L 13.875 -4.609375 C 13.875 -3.835938 14.03125 -3.285156 14.34375 -2.953125 C 14.65625 -2.628906 15.175781 -2.46875 15.90625 -2.46875 L 24.078125 -2.46875 C 25.972656 -2.46875 27.539062 -2.710938 28.78125 -3.203125 C 30.03125 -3.703125 31.101562 -4.507812 32 -5.625 C 32.894531 -6.738281 33.765625 -8.316406 34.609375 -10.359375 L 35.53125 -10.03125 L 32.359375 0 L 2.296875 0 L 2.296875 -0.984375 L 2.6875 -0.984375 C 4.550781 -0.984375 5.894531 -1.3125 6.71875 -1.96875 C 7.539062 -2.632812 7.953125 -3.828125 7.953125 -5.546875 L 7.953125 -32.1875 C 7.953125 -33.875 7.519531 -35.046875 6.65625 -35.703125 C 5.800781 -36.359375 4.457031 -36.6875 2.625 -36.6875 L 2.296875 -36.6875 L 2.296875 -37.671875 L 19.1875 -37.671875 Z M 19.1875 -36.6875 "/></g></g></g><g fill="#ffffff" fill-opacity="1"><g transform="translate(-0.000000000000015891, 68.326718)"><g><path d="M 6.703125 -5.328125 L 6.515625 -5.328125 C 6.472656 -5.816406 6.316406 -6.1875 6.046875 -6.4375 C 5.785156 -6.695312 5.488281 -6.828125 5.15625 -6.828125 L 4.34375 -6.828125 L 4.34375 -1.140625 C 4.34375 -0.878906 4.375 -0.679688 4.4375 -0.546875 C 4.507812 -0.410156 4.617188 -0.316406 4.765625 -0.265625 C 4.910156 -0.222656 5.117188 -0.195312 5.390625 -0.1875 L 5.390625 0 L 1.609375 0 L 1.609375 -0.1875 C 1.867188 -0.1875 2.070312 -0.203125 2.21875 -0.234375 C 2.363281 -0.273438 2.472656 -0.363281 2.546875 -0.5 C 2.617188 -0.632812 2.65625 -0.835938 2.65625 -1.109375 L 2.65625 -6.828125 L 1.75 -6.828125 C 1.4375 -6.828125 1.15625 -6.6875 0.90625 -6.40625 C 0.664062 -6.132812 0.519531 -5.773438 0.46875 -5.328125 L 0.28125 -5.328125 L 0.28125 -7.21875 L 6.703125 -7.21875 Z M 6.703125 -5.328125 "/></g></g></g><g fill="#ffffff" fill-opacity="1"><g transform="translate(7.008441, 68.326718)"><g><path d="M 2.046875 -4.21875 L 2.0625 -4.21875 C 2.445312 -4.726562 2.898438 -4.984375 3.421875 -4.984375 C 3.878906 -4.984375 4.210938 -4.835938 4.421875 -4.546875 C 4.628906 -4.253906 4.734375 -3.878906 4.734375 -3.421875 L 4.734375 -0.734375 C 4.734375 -0.609375 4.769531 -0.492188 4.84375 -0.390625 C 4.914062 -0.285156 5.007812 -0.21875 5.125 -0.1875 L 5.125 0 L 2.859375 0 L 2.859375 -0.1875 C 3.015625 -0.226562 3.125 -0.289062 3.1875 -0.375 C 3.257812 -0.46875 3.296875 -0.628906 3.296875 -0.859375 L 3.296875 -3.65625 C 3.296875 -4.09375 3.144531 -4.3125 2.84375 -4.3125 C 2.71875 -4.3125 2.59375 -4.257812 2.46875 -4.15625 C 2.34375 -4.0625 2.203125 -3.910156 2.046875 -3.703125 L 2.046875 -0.84375 C 2.046875 -0.644531 2.078125 -0.492188 2.140625 -0.390625 C 2.210938 -0.285156 2.328125 -0.21875 2.484375 -0.1875 L 2.484375 0 L 0.171875 0 L 0.171875 -0.1875 C 0.304688 -0.21875 0.398438 -0.257812 0.453125 -0.3125 C 0.503906 -0.363281 0.539062 -0.441406 0.5625 -0.546875 C 0.59375 -0.660156 0.609375 -0.828125 0.609375 -1.046875 L 0.609375 -6.40625 C 0.609375 -6.613281 0.566406 -6.757812 0.484375 -6.84375 C 0.410156 -6.9375 0.304688 -7 0.171875 -7.03125 L 0.171875 -7.21875 L 2.046875 -7.21875 Z M 2.046875 -4.21875 "/></g></g></g><g fill="#ffffff" fill-opacity="1"><g transform="translate(12.262147, 68.326718)"><g><path d="M 2.4375 -4.984375 C 2.863281 -4.984375 3.222656 -4.875 3.515625 -4.65625 C 3.804688 -4.445312 4.023438 -4.171875 4.171875 -3.828125 C 4.316406 -3.484375 4.394531 -3.128906 4.40625 -2.765625 L 4.40625 -2.59375 L 1.640625 -2.59375 C 1.679688 -2.007812 1.832031 -1.539062 2.09375 -1.1875 C 2.351562 -0.832031 2.679688 -0.65625 3.078125 -0.65625 C 3.328125 -0.65625 3.539062 -0.722656 3.71875 -0.859375 C 3.894531 -0.992188 4.054688 -1.191406 4.203125 -1.453125 L 4.40625 -1.328125 C 4.164062 -0.828125 3.878906 -0.457031 3.546875 -0.21875 C 3.222656 0.0195312 2.835938 0.140625 2.390625 0.140625 C 1.941406 0.140625 1.554688 0.03125 1.234375 -0.1875 C 0.910156 -0.40625 0.664062 -0.703125 0.5 -1.078125 C 0.332031 -1.460938 0.25 -1.890625 0.25 -2.359375 C 0.25 -2.828125 0.347656 -3.257812 0.546875 -3.65625 C 0.742188 -4.0625 1.007812 -4.382812 1.34375 -4.625 C 1.675781 -4.863281 2.039062 -4.984375 2.4375 -4.984375 Z M 3.125 -3.203125 C 3.125 -3.703125 3.066406 -4.066406 2.953125 -4.296875 C 2.847656 -4.535156 2.675781 -4.65625 2.4375 -4.65625 C 2.1875 -4.65625 1.988281 -4.5 1.84375 -4.1875 C 1.707031 -3.882812 1.640625 -3.53125 1.640625 -3.125 L 1.640625 -2.9375 L 3.125 -2.9375 Z M 3.125 -3.203125 "/></g></g></g><g fill="#ffffff" fill-opacity="1"><g transform="translate(16.864395, 68.326718)"><g/></g></g><g fill="#ffffff" fill-opacity="1"><g transform="translate(19.491241, 68.326718)"><g><path d="M 7.734375 -3.5625 C 7.734375 -2.820312 7.570312 -2.179688 7.25 -1.640625 C 6.925781 -1.097656 6.488281 -0.6875 5.9375 -0.40625 C 5.394531 -0.132812 4.785156 0 4.109375 0 L 0.171875 0 L 0.171875 -0.1875 C 0.429688 -0.1875 0.628906 -0.203125 0.765625 -0.234375 C 0.898438 -0.273438 1 -0.359375 1.0625 -0.484375 C 1.132812 -0.617188 1.171875 -0.820312 1.171875 -1.09375 L 1.171875 -6.109375 C 1.171875 -6.378906 1.132812 -6.578125 1.0625 -6.703125 C 0.988281 -6.835938 0.882812 -6.925781 0.75 -6.96875 C 0.625 -7.007812 0.429688 -7.03125 0.171875 -7.03125 L 0.171875 -7.21875 L 3.953125 -7.21875 C 4.640625 -7.21875 5.269531 -7.078125 5.84375 -6.796875 C 6.414062 -6.523438 6.875 -6.113281 7.21875 -5.5625 C 7.5625 -5.007812 7.734375 -4.34375 7.734375 -3.5625 Z M 3.65625 -0.375 C 5.125 -0.375 5.859375 -1.414062 5.859375 -3.5 C 5.859375 -4.675781 5.644531 -5.523438 5.21875 -6.046875 C 4.800781 -6.578125 4.269531 -6.84375 3.625 -6.84375 L 2.84375 -6.84375 L 2.84375 -1.078125 C 2.84375 -0.867188 2.863281 -0.710938 2.90625 -0.609375 C 2.957031 -0.515625 3.035156 -0.453125 3.140625 -0.421875 C 3.253906 -0.390625 3.425781 -0.375 3.65625 -0.375 Z M 3.65625 -0.375 "/></g></g></g><g fill="#ffffff" fill-opacity="1"><g transform="translate(27.592445, 68.326718)"><g><path d="M 2.4375 -4.984375 C 2.863281 -4.984375 3.222656 -4.875 3.515625 -4.65625 C 3.804688 -4.445312 4.023438 -4.171875 4.171875 -3.828125 C 4.316406 -3.484375 4.394531 -3.128906 4.40625 -2.765625 L 4.40625 -2.59375 L 1.640625 -2.59375 C 1.679688 -2.007812 1.832031 -1.539062 2.09375 -1.1875 C 2.351562 -0.832031 2.679688 -0.65625 3.078125 -0.65625 C 3.328125 -0.65625 3.539062 -0.722656 3.71875 -0.859375 C 3.894531 -0.992188 4.054688 -1.191406 4.203125 -1.453125 L 4.40625 -1.328125 C 4.164062 -0.828125 3.878906 -0.457031 3.546875 -0.21875 C 3.222656 0.0195312 2.835938 0.140625 2.390625 0.140625 C 1.941406 0.140625 1.554688 0.03125 1.234375 -0.1875 C 0.910156 -0.40625 0.664062 -0.703125 0.5 -1.078125 C 0.332031 -1.460938 0.25 -1.890625 0.25 -2.359375 C 0.25 -2.828125 0.347656 -3.257812 0.546875 -3.65625 C 0.742188 -4.0625 1.007812 -4.382812 1.34375 -4.625 C 1.675781 -4.863281 2.039062 -4.984375 2.4375 -4.984375 Z M 3.125 -3.203125 C 3.125 -3.703125 3.066406 -4.066406 2.953125 -4.296875 C 2.847656 -4.535156 2.675781 -4.65625 2.4375 -4.65625 C 2.1875 -4.65625 1.988281 -4.5 1.84375 -4.1875 C 1.707031 -3.882812 1.640625 -3.53125 1.640625 -3.125 L 1.640625 -2.9375 L 3.125 -2.9375 Z M 3.125 -3.203125 "/></g></g></g><g fill="#ffffff" fill-opacity="1"><g transform="translate(32.194694, 68.326718)"><g><path d="M 2.4375 -4.984375 C 2.863281 -4.984375 3.222656 -4.875 3.515625 -4.65625 C 3.804688 -4.445312 4.023438 -4.171875 4.171875 -3.828125 C 4.316406 -3.484375 4.394531 -3.128906 4.40625 -2.765625 L 4.40625 -2.59375 L 1.640625 -2.59375 C 1.679688 -2.007812 1.832031 -1.539062 2.09375 -1.1875 C 2.351562 -0.832031 2.679688 -0.65625 3.078125 -0.65625 C 3.328125 -0.65625 3.539062 -0.722656 3.71875 -0.859375 C 3.894531 -0.992188 4.054688 -1.191406 4.203125 -1.453125 L 4.40625 -1.328125 C 4.164062 -0.828125 3.878906 -0.457031 3.546875 -0.21875 C 3.222656 0.0195312 2.835938 0.140625 2.390625 0.140625 C 1.941406 0.140625 1.554688 0.03125 1.234375 -0.1875 C 0.910156 -0.40625 0.664062 -0.703125 0.5 -1.078125 C 0.332031 -1.460938 0.25 -1.890625 0.25 -2.359375 C 0.25 -2.828125 0.347656 -3.257812 0.546875 -3.65625 C 0.742188 -4.0625 1.007812 -4.382812 1.34375 -4.625 C 1.675781 -4.863281 2.039062 -4.984375 2.4375 -4.984375 Z M 3.125 -3.203125 C 3.125 -3.703125 3.066406 -4.066406 2.953125 -4.296875 C 2.847656 -4.535156 2.675781 -4.65625 2.4375 -4.65625 C 2.1875 -4.65625 1.988281 -4.5 1.84375 -4.1875 C 1.707031 -3.882812 1.640625 -3.53125 1.640625 -3.125 L 1.640625 -2.9375 L 3.125 -2.9375 Z M 3.125 -3.203125 "/></g></g></g><g fill="#ffffff" fill-opacity="1"><g transform="translate(36.796942, 68.326718)"><g><path d="M 3.3125 -4.984375 C 3.632812 -4.984375 3.921875 -4.867188 4.171875 -4.640625 C 4.429688 -4.421875 4.632812 -4.117188 4.78125 -3.734375 C 4.925781 -3.347656 5 -2.910156 5 -2.421875 C 5 -1.835938 4.898438 -1.351562 4.703125 -0.96875 C 4.515625 -0.59375 4.28125 -0.3125 4 -0.125 C 3.726562 0.0507812 3.457031 0.140625 3.1875 0.140625 C 2.769531 0.140625 2.4375 -0.0390625 2.1875 -0.40625 L 2.171875 -0.40625 L 2.171875 1.421875 C 2.171875 1.660156 2.222656 1.820312 2.328125 1.90625 C 2.429688 1.988281 2.625 2.03125 2.90625 2.03125 L 2.90625 2.21875 L 0.15625 2.21875 L 0.15625 2.03125 C 0.363281 2.03125 0.507812 1.984375 0.59375 1.890625 C 0.6875 1.796875 0.734375 1.632812 0.734375 1.40625 L 0.734375 -4.046875 C 0.734375 -4.285156 0.6875 -4.453125 0.59375 -4.546875 C 0.5 -4.640625 0.351562 -4.6875 0.15625 -4.6875 L 0.15625 -4.875 L 2.171875 -4.875 L 2.171875 -4.296875 L 2.1875 -4.296875 C 2.46875 -4.753906 2.84375 -4.984375 3.3125 -4.984375 Z M 2.171875 -3.734375 L 2.171875 -0.875 C 2.441406 -0.53125 2.679688 -0.359375 2.890625 -0.359375 C 3.117188 -0.359375 3.273438 -0.503906 3.359375 -0.796875 C 3.441406 -1.097656 3.484375 -1.617188 3.484375 -2.359375 C 3.484375 -3.054688 3.429688 -3.5625 3.328125 -3.875 C 3.234375 -4.195312 3.066406 -4.359375 2.828125 -4.359375 C 2.703125 -4.359375 2.578125 -4.296875 2.453125 -4.171875 C 2.335938 -4.046875 2.242188 -3.898438 2.171875 -3.734375 Z M 2.171875 -3.734375 "/></g></g></g><g fill="#ffffff" fill-opacity="1"><g transform="translate(42.050647, 68.326718)"><g/></g></g><g fill="#ffffff" fill-opacity="1"><g transform="translate(44.677493, 68.326718)"><g><path d="M 4.234375 -7.03125 C 3.878906 -7.019531 3.617188 -7 3.453125 -6.96875 C 3.296875 -6.9375 3.175781 -6.859375 3.09375 -6.734375 C 3.019531 -6.609375 2.984375 -6.398438 2.984375 -6.109375 L 2.984375 -0.96875 C 2.984375 -0.757812 3.03125 -0.609375 3.125 -0.515625 C 3.226562 -0.429688 3.394531 -0.390625 3.625 -0.390625 L 4.390625 -0.390625 C 4.972656 -0.390625 5.4375 -0.554688 5.78125 -0.890625 C 6.132812 -1.222656 6.394531 -1.742188 6.5625 -2.453125 L 6.75 -2.453125 L 6.5 0 L 0.171875 0 L 0.171875 -0.1875 C 0.472656 -0.195312 0.703125 -0.222656 0.859375 -0.265625 C 1.015625 -0.316406 1.125 -0.40625 1.1875 -0.53125 C 1.257812 -0.65625 1.296875 -0.847656 1.296875 -1.109375 L 1.296875 -6.109375 C 1.296875 -6.398438 1.253906 -6.609375 1.171875 -6.734375 C 1.097656 -6.859375 0.988281 -6.9375 0.84375 -6.96875 C 0.695312 -7 0.472656 -7.019531 0.171875 -7.03125 L 0.171875 -7.21875 L 4.234375 -7.21875 Z M 4.234375 -7.03125 "/></g></g></g><g fill="#ffffff" fill-opacity="1"><g transform="translate(51.685934, 68.326718)"><g><path d="M 2.671875 -4.984375 C 3.265625 -4.984375 3.703125 -4.859375 3.984375 -4.609375 C 4.265625 -4.367188 4.40625 -4.0625 4.40625 -3.6875 L 4.40625 -1.09375 C 4.40625 -0.707031 4.503906 -0.515625 4.703125 -0.515625 C 4.753906 -0.515625 4.800781 -0.53125 4.84375 -0.5625 C 4.882812 -0.59375 4.929688 -0.644531 4.984375 -0.71875 L 5.078125 -0.625 C 4.972656 -0.382812 4.816406 -0.195312 4.609375 -0.0625 C 4.398438 0.0703125 4.164062 0.140625 3.90625 0.140625 C 3.632812 0.140625 3.414062 0.078125 3.25 -0.046875 C 3.09375 -0.179688 3 -0.378906 2.96875 -0.640625 C 2.925781 -0.609375 2.863281 -0.5625 2.78125 -0.5 C 2.539062 -0.289062 2.3125 -0.128906 2.09375 -0.015625 C 1.882812 0.0859375 1.644531 0.140625 1.375 0.140625 C 1.101562 0.140625 0.875 0.046875 0.6875 -0.140625 C 0.5 -0.335938 0.40625 -0.578125 0.40625 -0.859375 C 0.40625 -1.222656 0.5625 -1.546875 0.875 -1.828125 C 1.195312 -2.117188 1.550781 -2.351562 1.9375 -2.53125 L 2.96875 -3.03125 L 2.96875 -3.984375 C 2.96875 -4.160156 2.910156 -4.3125 2.796875 -4.4375 C 2.691406 -4.5625 2.523438 -4.625 2.296875 -4.625 C 2.097656 -4.625 1.925781 -4.582031 1.78125 -4.5 C 1.644531 -4.414062 1.578125 -4.3125 1.578125 -4.1875 C 1.578125 -4.144531 1.585938 -4.101562 1.609375 -4.0625 C 1.640625 -4.019531 1.675781 -3.976562 1.71875 -3.9375 C 1.78125 -3.863281 1.828125 -3.789062 1.859375 -3.71875 C 1.890625 -3.644531 1.90625 -3.5625 1.90625 -3.46875 C 1.90625 -3.300781 1.84375 -3.164062 1.71875 -3.0625 C 1.59375 -2.957031 1.429688 -2.90625 1.234375 -2.90625 C 1.003906 -2.90625 0.816406 -2.960938 0.671875 -3.078125 C 0.535156 -3.203125 0.46875 -3.363281 0.46875 -3.5625 C 0.46875 -3.8125 0.566406 -4.046875 0.765625 -4.265625 C 0.972656 -4.484375 1.242188 -4.65625 1.578125 -4.78125 C 1.910156 -4.914062 2.273438 -4.984375 2.671875 -4.984375 Z M 1.84375 -1.3125 C 1.84375 -1.144531 1.890625 -1.007812 1.984375 -0.90625 C 2.078125 -0.800781 2.195312 -0.75 2.34375 -0.75 C 2.457031 -0.75 2.5625 -0.769531 2.65625 -0.8125 C 2.75 -0.851562 2.851562 -0.921875 2.96875 -1.015625 L 2.96875 -2.671875 C 2.21875 -2.285156 1.84375 -1.832031 1.84375 -1.3125 Z M 1.84375 -1.3125 "/></g></g></g><g fill="#ffffff" fill-opacity="1"><g transform="translate(56.93964, 68.326718)"><g><path d="M 2 -1.4375 C 2 -1.125 2.035156 -0.898438 2.109375 -0.765625 C 2.179688 -0.628906 2.296875 -0.5625 2.453125 -0.5625 C 2.597656 -0.5625 2.742188 -0.617188 2.890625 -0.734375 C 3.046875 -0.847656 3.175781 -1.003906 3.28125 -1.203125 L 3.28125 -4.09375 C 3.28125 -4.300781 3.234375 -4.445312 3.140625 -4.53125 C 3.046875 -4.613281 2.890625 -4.664062 2.671875 -4.6875 L 2.671875 -4.875 L 4.71875 -4.875 L 4.71875 -0.578125 C 4.71875 -0.347656 4.835938 -0.21875 5.078125 -0.1875 L 5.078125 0 L 3.28125 0 L 3.28125 -0.625 C 3.09375 -0.394531 2.878906 -0.207031 2.640625 -0.0625 C 2.398438 0.0703125 2.15625 0.140625 1.90625 0.140625 C 1.488281 0.140625 1.160156 0.0078125 0.921875 -0.25 C 0.679688 -0.519531 0.5625 -0.878906 0.5625 -1.328125 L 0.5625 -4.015625 C 0.5625 -4.234375 0.53125 -4.390625 0.46875 -4.484375 C 0.414062 -4.585938 0.3125 -4.65625 0.15625 -4.6875 L 0.15625 -4.875 L 2 -4.875 Z M 2 -1.4375 "/></g></g></g><g fill="#ffffff" fill-opacity="1"><g transform="translate(62.193345, 68.326718)"><g><path d="M 3.421875 -4.984375 C 3.835938 -4.984375 4.15625 -4.84375 4.375 -4.5625 C 4.601562 -4.28125 4.71875 -3.929688 4.71875 -3.515625 L 4.71875 -1.015625 C 4.71875 -0.804688 4.722656 -0.65625 4.734375 -0.5625 C 4.753906 -0.46875 4.785156 -0.394531 4.828125 -0.34375 C 4.878906 -0.289062 4.960938 -0.238281 5.078125 -0.1875 L 5.078125 0 L 2.828125 0 L 2.828125 -0.1875 C 3.128906 -0.21875 3.28125 -0.441406 3.28125 -0.859375 L 3.28125 -3.59375 C 3.28125 -4.070312 3.125 -4.3125 2.8125 -4.3125 C 2.539062 -4.3125 2.273438 -4.113281 2.015625 -3.71875 L 2.015625 -0.796875 C 2.015625 -0.441406 2.160156 -0.238281 2.453125 -0.1875 L 2.453125 0 L 0.171875 0 L 0.171875 -0.1875 C 0.304688 -0.21875 0.40625 -0.28125 0.46875 -0.375 C 0.539062 -0.476562 0.578125 -0.632812 0.578125 -0.84375 L 0.578125 -4.046875 C 0.578125 -4.191406 0.546875 -4.320312 0.484375 -4.4375 C 0.429688 -4.5625 0.328125 -4.644531 0.171875 -4.6875 L 0.171875 -4.875 L 2.015625 -4.875 L 2.015625 -4.21875 C 2.242188 -4.476562 2.46875 -4.671875 2.6875 -4.796875 C 2.914062 -4.921875 3.160156 -4.984375 3.421875 -4.984375 Z M 3.421875 -4.984375 "/></g></g></g><g fill="#ffffff" fill-opacity="1"><g transform="translate(67.447051, 68.326718)"><g><path d="M 4.515625 -1.078125 C 4.515625 -0.859375 4.554688 -0.703125 4.640625 -0.609375 C 4.722656 -0.515625 4.878906 -0.46875 5.109375 -0.46875 L 5.109375 -0.28125 L 3.078125 0.140625 L 3.078125 -0.5625 L 3.0625 -0.5625 C 2.945312 -0.332031 2.789062 -0.15625 2.59375 -0.03125 C 2.40625 0.0820312 2.195312 0.140625 1.96875 0.140625 C 1.632812 0.140625 1.335938 0.03125 1.078125 -0.1875 C 0.816406 -0.414062 0.609375 -0.726562 0.453125 -1.125 C 0.304688 -1.519531 0.234375 -1.972656 0.234375 -2.484375 C 0.234375 -3.003906 0.320312 -3.453125 0.5 -3.828125 C 0.6875 -4.210938 0.914062 -4.5 1.1875 -4.6875 C 1.46875 -4.882812 1.757812 -4.984375 2.0625 -4.984375 C 2.257812 -4.984375 2.4375 -4.941406 2.59375 -4.859375 C 2.75 -4.785156 2.910156 -4.65625 3.078125 -4.46875 L 3.078125 -6.390625 C 3.078125 -6.640625 3.019531 -6.804688 2.90625 -6.890625 C 2.800781 -6.972656 2.617188 -7.019531 2.359375 -7.03125 L 2.359375 -7.21875 L 4.515625 -7.21875 Z M 1.75 -2.640625 C 1.75 -1.929688 1.800781 -1.394531 1.90625 -1.03125 C 2.007812 -0.675781 2.1875 -0.5 2.4375 -0.5 C 2.664062 -0.5 2.878906 -0.703125 3.078125 -1.109375 L 3.078125 -3.859375 C 2.953125 -4.097656 2.832031 -4.265625 2.71875 -4.359375 C 2.601562 -4.453125 2.472656 -4.5 2.328125 -4.5 C 2.109375 -4.5 1.957031 -4.335938 1.875 -4.015625 C 1.789062 -3.703125 1.75 -3.242188 1.75 -2.640625 Z M 1.75 -2.640625 "/></g></g></g><g fill="#ffffff" fill-opacity="1"><g transform="translate(72.700756, 68.326718)"><g><path d="M 3.25 -4.984375 C 3.414062 -4.984375 3.550781 -4.914062 3.65625 -4.78125 C 3.769531 -4.65625 3.828125 -4.492188 3.828125 -4.296875 C 3.828125 -4.078125 3.769531 -3.898438 3.65625 -3.765625 C 3.550781 -3.628906 3.410156 -3.5625 3.234375 -3.5625 C 3.148438 -3.5625 3.078125 -3.578125 3.015625 -3.609375 C 2.953125 -3.648438 2.875 -3.703125 2.78125 -3.765625 C 2.644531 -3.859375 2.546875 -3.90625 2.484375 -3.90625 C 2.378906 -3.90625 2.285156 -3.8125 2.203125 -3.625 C 2.128906 -3.445312 2.09375 -3.242188 2.09375 -3.015625 L 2.09375 -0.828125 C 2.09375 -0.597656 2.132812 -0.429688 2.21875 -0.328125 C 2.3125 -0.234375 2.476562 -0.1875 2.71875 -0.1875 L 2.71875 0 L 0.109375 0 L 0.109375 -0.1875 C 0.472656 -0.1875 0.65625 -0.394531 0.65625 -0.8125 L 0.65625 -4.046875 C 0.65625 -4.460938 0.472656 -4.675781 0.109375 -4.6875 L 0.109375 -4.875 L 2.09375 -4.875 L 2.09375 -4 L 2.109375 -4 C 2.441406 -4.65625 2.820312 -4.984375 3.25 -4.984375 Z M 3.25 -4.984375 "/></g></g></g><g fill="#ffffff" fill-opacity="1"><g transform="translate(76.746101, 68.326718)"><g><path d="M 2.734375 -4.6875 C 2.566406 -4.675781 2.445312 -4.644531 2.375 -4.59375 C 2.300781 -4.550781 2.265625 -4.476562 2.265625 -4.375 C 2.265625 -4.226562 2.316406 -4.035156 2.421875 -3.796875 L 3.265625 -1.765625 L 3.8125 -3.34375 C 3.957031 -3.769531 4.03125 -4.0625 4.03125 -4.21875 C 4.03125 -4.53125 3.84375 -4.6875 3.46875 -4.6875 L 3.46875 -4.875 L 5.078125 -4.875 L 5.078125 -4.6875 C 4.890625 -4.6875 4.734375 -4.597656 4.609375 -4.421875 C 4.492188 -4.253906 4.359375 -3.957031 4.203125 -3.53125 L 2.734375 0.703125 C 2.535156 1.265625 2.328125 1.65625 2.109375 1.875 C 1.890625 2.101562 1.613281 2.21875 1.28125 2.21875 C 1.007812 2.21875 0.789062 2.140625 0.625 1.984375 C 0.457031 1.835938 0.375 1.644531 0.375 1.40625 C 0.375 1.207031 0.4375 1.039062 0.5625 0.90625 C 0.6875 0.769531 0.835938 0.703125 1.015625 0.703125 C 1.253906 0.703125 1.421875 0.8125 1.515625 1.03125 C 1.546875 1.125 1.5625 1.238281 1.5625 1.375 C 1.570312 1.476562 1.585938 1.554688 1.609375 1.609375 C 1.628906 1.660156 1.675781 1.6875 1.75 1.6875 C 1.882812 1.6875 2.015625 1.570312 2.140625 1.34375 C 2.265625 1.125 2.410156 0.75 2.578125 0.21875 L 0.96875 -3.671875 C 0.820312 -4.015625 0.695312 -4.257812 0.59375 -4.40625 C 0.488281 -4.550781 0.347656 -4.644531 0.171875 -4.6875 L 0.171875 -4.875 L 2.734375 -4.875 Z M 2.734375 -4.6875 "/></g></g></g></svg>